<?xml version="1.0" encoding="UTF-8"?><svg id="a" xmlns="http://www.w3.org/2000/svg" viewBox="0 0 125.59 125.59"><defs><style>.b{fill:#6a6a6a;}.c{stroke:#c28720;}.c,.d,.e,.f,.g,.h,.i,.j,.k,.l,.m,.n,.o,.p{fill:none;stroke-width:.3px;}.q{fill:#130d08;}.r{fill:#130d09;}.s{fill:#a97319;}.d{stroke:#322111;}.e{stroke:#be841c;}.f{stroke:#0b0908;}.t{fill:#8b692d;}.g{stroke:#878483;}.u{fill:#61420d;}.h{stroke:#130d09;}.v{fill:#be841c;}.i{stroke:#61420d;}.w{fill:#322111;}.j{stroke:#676664;}.k{stroke:#dab87b;}.l{stroke:#130d08;}.x{fill:#676664;}.y{fill:#dab87b;}.m{stroke:#b67e1f;}.n{stroke:#6a6a6a;}.a`{fill:#c28720;}.aa{fill:#b67e1f;}.ab{fill:#878483;}.o{stroke:#8b692d;}.p{stroke:#a97319;}.ac{fill:#0b0908;}</style></defs><path class="f" d="M54.99,110.29c4.65-.18,9.35,.28,14,0,2.27,.54,3.77-1.52,6-1,.96,11.17,23.27,2.71,12-6,8.46-4.02,6.74-10.39,9.07-17.93,2.33-7.54-2.63-12.64-7.31-17.82-4.69-5.18,3.82-13.1,4.24-19.25,.23-3.45,.43-7.57,0-11,.33-2.32-1.09-4.06-2-6,12.5-9.41-7.31-22.27-14-10-5.82-1.98-11.7-2.87-18-3-2.96-.06-6.05-.2-9,0-3.57-.19-6.66,1.43-10,2-3.91-11.98-22.82-.7-14.92,7.92,7.9,8.63-5.4,19.46,3,28,8.4,8.54-1.76,12.25-3.08,22.08s1.18,19.95,9,26c-4.03,4.38,.51,10.23,6,10,5.48-.24,9.36-3.78,15-4M38.99,26.29c12.25-4.04,24.41-5.18,37,0,5.48,.05,7.55-7.29,14-5,1.12,4.22-3.62,6.29-4,10,4.55,5.76,5.42,17.77-.3,24.69-5.73,6.93-1.78,14.22,4.55,20.06s-.13,18.31-5.5,23c-5.36,4.7-16.97,8.17-24.75,7.25s-17.99-1.92-24.23-6.77c-6.24-4.86-8.55-18.48-4.84-25.3,3.7-6.82,12.35-11.86,2.82-18.68-9.54-6.82,2.99-17.06-.75-25.25-.08-.17-1.79-1.76-2-2-7.62-8.48,2.85-10.37,8-2m40,83c4.95-7.2,8.68,4.01,0,0m-35-1c-6.11,3.94-6.93-3.78,0,0Z"/><path class="g" d="M49.99,18.29c2.95-.2,6.04-.06,9,0-3.01-.36-5.87-.56-9,0Z"/><path class="i" d="M30.99,28.29c-1.52-2.34-3.27-8.42,1.03-7.97,4.29,.45,3.17,5.3,5.97,6.97,.22-.26,.75-.92,1-1-5.15-8.37-15.62-6.48-8,2Z"/><path class="e" d="M30.99,28.29c.21,.24,1.92,1.83,2,2,1.27,.23,4.07-1.88,5-3-2.8-1.67-1.68-6.52-5.97-6.97-4.3-.45-2.55,5.63-1.03,7.97Z"/><path class="m" d="M75.99,26.29c2.19,.9,8.3,2.85,10,5,.38-3.71,5.12-5.78,4-10-6.45-2.29-8.52,5.05-14,5Z"/><path class="k" d="M38.99,26.29c-.25,.08-.78,.74-1,1-.93,1.12-3.73,3.23-5,3,3.74,8.19-8.79,18.43,.75,25.25,9.53,6.82,.88,11.86-2.82,18.68-3.71,6.82-1.4,20.44,4.84,25.3,6.24,4.85,16.45,5.85,24.23,6.77s19.39-2.55,24.75-7.25c5.37-4.69,11.83-17.16,5.5-23s-10.28-13.13-4.55-20.06c5.72-6.92,4.85-18.93,.3-24.69-1.7-2.15-7.81-4.1-10-5-12.59-5.18-24.75-4.04-37,0m4,15c2.28,1.14-.1,5.31-2.68,3.66-2.58-1.65,.28-4.86,2.68-3.66m35,1c1.41,8.51-8.53-.45,0,0m-25,33c9.56,2.92,3.12,16.38-3.22,13.22-6.34-3.16-15.57-9.45-7.78-12.22,2.66-.94,8.72-1.69,11-1m29,4c2.27,2.14,2.97,.48,2,4-4.16,15.09-20.16,6.53-15-7,1.83-.23,3.47,.07,5,1-.03,.01,2.61-3.64,4.22-1.22,1.62,2.42,2.04,1.58,3.78,3.22Z"/><path class="n" d="M92.99,48.29c.66-3.71,.95-7.18,0-11,.43,3.43,.23,7.55,0,11Z"/><path class="d" d="M42.99,41.29c-2.4-1.2-5.26,2.01-2.68,3.66,2.58,1.65,4.96-2.52,2.68-3.66Z"/><path class="p" d="M41.99,76.29c3.38,.42,6.32,9.08,11,8,.61-3.17-2.41-6.11,0-9-2.28-.69-8.34,.06-11,1Z"/><path class="h" d="M41.99,76.29c-7.79,2.77,1.44,9.06,7.78,12.22,6.34,3.16,12.78-10.3,3.22-13.22-2.41,2.89,.61,5.83,0,9-4.68,1.08-7.62-7.58-11-8Z"/><path class="c" d="M73.99,77.29c-1.13,2.49,.85,6.38,0,9,2,.11,4.17-1.95,4-4,1.18-1.46,1.78-3.12,4-3-1.74-1.64-2.16-.8-3.78-3.22-1.61-2.42-4.25,1.23-4.22,1.22Z"/><path class="l" d="M83.99,83.29c-.05-1,.04-2,0-3-2.47-.67-4.18,.78-6,2,.17,2.05-2,4.11-4,4,.85-2.62-1.13-6.51,0-9-1.53-.93-3.17-1.23-5-1-5.16,13.53,10.84,22.09,15,7Z"/><path class="o" d="M77.99,82.29c1.82-1.22,3.53-2.67,6-2,.04,1-.05,2,0,3,.97-3.52,.27-1.86-2-4-2.22-.12-2.82,1.54-4,3Z"/><path class="j" d="M68.99,110.29c-4.65,.28-9.35-.18-14,0,4.34,.26,9.47,.79,14,0Z"/><path class="ac" d="M54.99,110.29c4.65-.18,9.35,.28,14,0,2.27,.54,3.77-1.52,6-1,.96,11.17,23.27,2.71,12-6,8.46-4.02,6.74-10.39,9.07-17.93,2.33-7.54-2.63-12.64-7.31-17.82-4.69-5.18,3.82-13.1,4.24-19.25,.23-3.45,.43-7.57,0-11,.33-2.32-1.09-4.06-2-6,12.5-9.41-7.31-22.27-14-10-5.82-1.98-11.7-2.87-18-3-2.96-.06-6.05-.2-9,0-3.57-.19-6.66,1.43-10,2-3.91-11.98-22.82-.7-14.92,7.92,7.9,8.63-5.4,19.46,3,28,8.4,8.54-1.76,12.25-3.08,22.08s1.18,19.95,9,26c-4.03,4.38,.51,10.23,6,10,5.48-.24,9.36-3.78,15-4M38.99,26.29c12.25-4.04,24.41-5.18,37,0,5.48,.05,7.55-7.29,14-5,1.12,4.22-3.62,6.29-4,10,4.55,5.76,5.42,17.77-.3,24.69-5.73,6.93-1.78,14.22,4.55,20.06s-.13,18.31-5.5,23c-5.36,4.7-16.97,8.17-24.75,7.25s-17.99-1.92-24.23-6.77c-6.24-4.86-8.55-18.48-4.84-25.3,3.7-6.82,12.35-11.86,2.82-18.68-9.54-6.82,2.99-17.06-.75-25.25-.08-.17-1.79-1.76-2-2-7.62-8.48,2.85-10.37,8-2m40,83c4.95-7.2,8.68,4.01,0,0m-35-1c-6.11,3.94-6.93-3.78,0,0Z"/><path class="ab" d="M49.99,18.29c2.95-.2,6.04-.06,9,0-3.01-.36-5.87-.56-9,0Z"/><path class="u" d="M30.99,28.29c-1.52-2.34-3.27-8.42,1.03-7.97,4.29,.45,3.17,5.3,5.97,6.97,.22-.26,.75-.92,1-1-5.15-8.37-15.62-6.48-8,2Z"/><path class="v" d="M30.99,28.29c.21,.24,1.92,1.83,2,2,1.27,.23,4.07-1.88,5-3-2.8-1.67-1.68-6.52-5.97-6.97-4.3-.45-2.55,5.63-1.03,7.97Z"/><path class="aa" d="M75.99,26.29c2.19,.9,8.3,2.85,10,5,.38-3.71,5.12-5.78,4-10-6.45-2.29-8.52,5.05-14,5Z"/><path class="y" d="M38.99,26.29c-.25,.08-.78,.74-1,1-.93,1.12-3.73,3.23-5,3,3.74,8.19-8.79,18.43,.75,25.25,9.53,6.82,.88,11.86-2.82,18.68-3.71,6.82-1.4,20.44,4.84,25.3,6.24,4.85,16.45,5.85,24.23,6.77s19.39-2.55,24.75-7.25c5.37-4.69,11.83-17.16,5.5-23s-10.28-13.13-4.55-20.06c5.72-6.92,4.85-18.93,.3-24.69-1.7-2.15-7.81-4.1-10-5-12.59-5.18-24.75-4.04-37,0m4,15c2.28,1.14-.1,5.31-2.68,3.66-2.58-1.65,.28-4.86,2.68-3.66m35,1c1.41,8.51-8.53-.45,0,0m-25,33c9.56,2.92,3.12,16.38-3.22,13.22-6.34-3.16-15.57-9.45-7.78-12.22,2.66-.94,8.72-1.69,11-1m29,4c2.27,2.14,2.97,.48,2,4-4.16,15.09-20.16,6.53-15-7,1.83-.23,3.47,.07,5,1-.03,.01,2.61-3.64,4.22-1.22,1.62,2.42,2.04,1.58,3.78,3.22Z"/><path class="b" d="M92.99,48.29c.66-3.71,.95-7.18,0-11,.43,3.43,.23,7.55,0,11Z"/><path class="w" d="M42.99,41.29c-2.4-1.2-5.26,2.01-2.68,3.66,2.58,1.65,4.96-2.52,2.68-3.66Z"/><path class="s" d="M41.99,76.29c3.38,.42,6.32,9.08,11,8,.61-3.17-2.41-6.11,0-9-2.28-.69-8.34,.06-11,1Z"/><path class="r" d="M41.99,76.29c-7.79,2.77,1.44,9.06,7.78,12.22,6.34,3.16,12.78-10.3,3.22-13.22-2.41,2.89,.61,5.83,0,9-4.68,1.08-7.62-7.58-11-8Z"/><path class="a`" d="M73.99,77.29c-1.13,2.49,.85,6.38,0,9,2,.11,4.17-1.95,4-4,1.18-1.46,1.78-3.12,4-3-1.74-1.64-2.16-.8-3.78-3.22-1.61-2.42-4.25,1.23-4.22,1.22Z"/><path class="q" d="M83.99,83.29c-.05-1,.04-2,0-3-2.47-.67-4.18,.78-6,2,.17,2.05-2,4.11-4,4,.85-2.62-1.13-6.51,0-9-1.53-.93-3.17-1.23-5-1-5.16,13.53,10.84,22.09,15,7Z"/><path class="t" d="M77.99,82.29c1.82-1.22,3.53-2.67,6-2,.04,1-.05,2,0,3,.97-3.52,.27-1.86-2-4-2.22-.12-2.82,1.54-4,3Z"/><path class="x" d="M68.99,110.29c-4.65,.28-9.35-.18-14,0,4.34,.26,9.47,.79,14,0Z"/></svg>