<?xml version="1.0" encoding="UTF-8"?><svg id="a" xmlns="http://www.w3.org/2000/svg" viewBox="0 0 125.59 125.59"><defs><style>.b{fill:#6a6a6a;}.c{fill:#6c6b6a;}.d{fill:#030302;}.e{stroke:#f2f2f2;}.e,.f,.g,.h,.i,.j,.k,.l,.m,.n,.o,.p,.q,.r,.s,.t{fill:none;stroke-width:.3px;}.f{stroke:#73716e;}.u{fill:#090808;}.g{stroke:#6f6f6f;}.h{stroke:#6e6d6b;}.i{stroke:#090808;}.v{fill:#6f6f6c;}.j{stroke:#6c6b6a;}.w{fill:#0a0909;}.k{stroke:#312f30;}.x{fill:#6f6f6f;}.l{stroke:#666;}.m{stroke:#060505;}.n{stroke:#0a0909;}.o{stroke:#030302;}.y{fill:#dedddb;}.p{stroke:#e9e9e8;}.q{stroke:#e1e1e0;}.a`{fill:#73716e;}.r{stroke:#6f6f6c;}.s{stroke:#6a6a6a;}.aa{fill:#312f30;}.ab{fill:#060505;}.ac{fill:#6e6d6b;}.ad{fill:#e9e9e8;}.t{stroke:#dedddb;}.ae{fill:#e1e1e0;}.af{fill:#666;}.ag{fill:#f2f2f2;}</style></defs><path class="m" d="M17.42-84.52c0,4.31-.23,8.7,0,13-1.47,12.23,11.09,28.16,22,16-2.41,10.37-6,19.98-6,31,0,11.01,12.45,15.96,22,15-3,4.79-4.19,10.96-1,16-4.58,1.01-10.28,1.59-13,6C27.57,1.28,15.78,31.62,33.42,32.48c-5.59,9.01,2.73,19.58,11,23-6.03,10.44-10.8,16.23-13,29s9.35,19.56,21,20c7.32,.28,16.49,1.1,23,1,24.66-3.23,15.9-34.77,5-48,8.17-6.44,13.45-16.26,12-27,15.37,1.1,10.32-28.23-2.78-21.78-13.09,6.46-19.26-5.83-34.22-3.22-1.31-3.32,3.16-3.48,3-6-3.44,.31-2.84-3.03-2-5,2.02,.76,3.62,4.52,6,2-1.41-2.25-2.83-4.62-5-6,13-.47,32.22,4.39,37.07-9.93,4.86-14.31,2.22-24.41-4.07-37.07,7.9-6.72,19.47,8.27,23-6,.68-5.47,0-11.48,0-17,0-6.75,2-20.75-6-22-8-1.24-14.06,5.74-20.75,7.24-6.7,1.51-13.65-1.28-21.23-3.26-7.58-1.98-16.63,1.2-22.99,2.99-6.36,1.8-10.63-13.45-18-9.94-7.38,3.5-7.03,12.59-7.03,19.97m23-3c13.43-10.33,32.75-5.32,46,2,4.25-7.52,6.49-5.67,15.03-9.97,8.53-4.3,6.65,11.16,7.3,16.64,.65,5.48,2.78,21.41-5.4,17.4-8.19-4.01-11.94-.37-18.16,3.7-6.22,4.07-16.87-1.55-22,4-5.13,5.56-5.12,12.87-3,19.46,2.12,6.59,12.26,8.08,16.23,1.77-2.23,9.2-13.83,8.7-22.07,5.07-8.25-3.63-6.84-14.05-3.95-21.09,2.88-7.05-10.89-15.47-16.73-9.73-5.83,5.75-12.52-5.74-12.18-13.32,.35-7.59,.01-20.46,2.93-27.93,6.58,1.05,11.83,6.87,16,12m4,35c1.55,7.3-5.28,15.27,.31,22.69,5.58,7.43,10.78,8.49,19.71,9.29,8.94,.79,15.66-2.49,16.98-11.98,1.31-9.5-15.22-12.6-10-2-8.47,2.95-8.94-6.63-6.01-13.01s14.95-2.66,21.01-4.99c6.5,9.95,5.08,15.59,4.68,27.68-.41,12.09-16.47,11.15-25.68,10.32s-24.33,2.91-26.92-8.08c-2.59-10.99,3.75-20.59,5.92-29.92M97.42,18.48c.07,2.57-2.32,4.63-3,7-1.57,.39-4.22-.94-5,1-.9,.61-1.21,2.76-3,2,2.27,8.16,.63,13.75-4.3,20.7-4.94,6.95-11.82,5.87-19.7,5.3-7.88-.57-14.18-.59-20.75-6.25-6.57-5.65-2.76-12.31-5.25-18.75-3.78-3.93-9.41-1.72-7-9,3.02-9.13,7.31-1.45,12.03-2.03,4.71-.58,7.31-7.51,13.19-7.75,5.89-.23,13.27,.51,18.01,2.55,4.74,2.04,8.79,8.5,12.52,3.98s12.05-5.94,12.25,1.25M52.42,59.48c5.98,.1,12.03-.36,18,0,1.99,.12,4-.09,6,0,6.04,11.15,19.32,32.91,2,40,.27-4.8,.9-12.71-6-12-1.66,1.64-6.86,1.28-9,4-2.2,2.79-.56,8.64-5,9,1.62-5.03,1.55-10.49-3-14-.4-.2-1,0-1,0-7.25-.78-10.35,4.25-10,11-11.28-.13-8.42-15.09-5.23-21.23,3.2-6.14,5.15-18.31,13.23-16.77m-3,40c-1.21-2.62,.69-10.73,4.23-8.21,3.54,2.52-1.43,8.4-4.23,8.21m24-7c1.31,4.71-1.75,9.52-7,8-.79-4.25,2.56-8.51,7-8Z"/><path class="f" d="M29.42,20.48c2.9-2.97,4.1,.35,7.25,1.75,3.14,1.41-.25,7.39-.25,7.25,2.49,6.44-1.32,13.1,5.25,18.75,6.57,5.66,12.87,5.68,20.75,6.25,7.88,.57,14.76,1.65,19.7-5.3,4.93-6.95,6.57-12.54,4.3-20.7,1.79,.76,2.1-1.39,3-2-.97,.06-1.79,1.57-3,1-.89-6.14,5.15-10.68,11-9-.2-7.19-8.52-5.77-12.25-1.25s-7.78-1.94-12.52-3.98c-4.74-2.04-12.12-2.78-18.01-2.55-5.88,.24-8.48,7.17-13.19,7.75-4.72,.58-9.01-7.1-12.03,2.03m49,6c6.11,2.08,2.71,13.77-4.08,11.06-6.8-2.7-3.4-13.61,4.08-11.06m-30,1c5.74,2.8,0,14.18-6.07,10.07-6.07-4.11-.13-13.1,6.07-10.07m14,5c8.34,3.38,3.36,21.74-6.22,17.22-9.59-4.52-3.35-21.1,6.22-17.22Z"/><path class="p" d="M89.42,26.48c.78-1.94,3.43-.61,5-1,.68-2.37,3.07-4.43,3-7-5.85-1.68-11.89,2.86-11,9,1.21,.57,2.03-.94,3-1Z"/><path class="q" d="M29.42,20.48c-2.41,7.28,3.22,5.07,7,9,0,.14,3.39-5.84,.25-7.25-3.15-1.4-4.35-4.72-7.25-1.75Z"/><path class="t" d="M78.42,26.48c-7.48-2.55-10.88,8.36-4.08,11.06,6.79,2.71,10.19-8.98,4.08-11.06m-2,4c2.03,.92,.88,5.74-1.7,4.64-2.58-1.1-.69-5.73,1.7-4.64Z"/><path class="q" d="M48.42,27.48c-6.2-3.03-12.14,5.96-6.07,10.07,6.06,4.11,11.81-7.27,6.07-10.07m-1,3c.49,8.46-8.54-1.3,0,0Z"/><path class="k" d="M76.42,30.48c-2.39-1.09-4.28,3.54-1.7,4.64,2.58,1.1,3.73-3.72,1.7-4.64Z"/><path class="o" d="M62.42,32.48c-9.57-3.88-15.81,12.7-6.22,17.22,9.58,4.52,14.56-13.84,6.22-17.22Z"/><path class="r" d="M54.42,86.48c-3.63-.64-1.38-3.42-3-5-3.79-.36-7.83-3.66-7-8,3.99-1.54,5.25,3.84,9,3-1.48-1.76-1.17-4.21,0-6-.25-2.51-4.17-8.71-1-11-8.08-1.54-10.03,10.63-13.23,16.77-3.19,6.14-6.05,21.1,5.23,21.23-.35-6.75,2.75-11.78,10-11Z"/><path class="e" d="M53.42,70.48c1.39,1.74,5.55,1.57,4.98,6.02-.58,4.45-2.56,5.39-6.98,4.98,1.62,1.58-.63,4.36,3,5,0,0,.6-.2,1,0,2.83,1.38,4.46,5.24,8,5,2.14-2.72,7.34-2.36,9-4-.51-.53,.43-2.39,0-3-1.44-2.06-4.1-.97-3.99-5.01,.11-4.04,1.25-4.15,2.99-6.99,2.04-3.33,3.92-11.07-1-13-5.97-.36-12.02,.1-18,0-3.17,2.29,.75,8.49,1,11Z"/><path class="h" d="M71.42,72.48c5.49-2.53,2.39,4.19,2,7,7.47-6.76,6.83,7.48-1,5,.43,.61-.51,2.47,0,3,6.9-.71,6.27,7.2,6,12,17.32-7.09,4.04-28.85-2-40-2-.09-4.01,.12-6,0,4.92,1.93,3.04,9.67,1,13Z"/><path class="i" d="M51.42,81.48c4.42,.41,6.4-.53,6.98-4.98,.57-4.45-3.59-4.28-4.98-6.02-1.17,1.79-1.48,4.24,0,6-3.75,.84-5.01-4.54-9-3-.83,4.34,3.21,7.64,7,8Z"/><path class="n" d="M71.42,72.48c-1.74,2.84-2.88,2.95-2.99,6.99-.11,4.04,2.55,2.95,3.99,5.01,7.83,2.48,8.47-11.76,1-5,.39-2.81,3.49-9.53-2-7Z"/><path class="s" d="M63.42,91.48c-3.54,.24-5.17-3.62-8-5,4.55,3.51,4.62,8.97,3,14,4.44-.36,2.8-6.21,5-9Z"/><path class="l" d="M49.42,99.48c2.8,.19,7.77-5.69,4.23-8.21-3.54-2.52-5.44,5.59-4.23,8.21Z"/><path class="j" d="M73.42,92.48c-4.44-.51-7.79,3.75-7,8,5.25,1.52,8.31-3.29,7-8Z"/><path class="g" d="M75.42,99.48c-6.51,.1-15.68-.72-23-1,6.67,.95,15.56,1.83,23,1Z"/><path class="ab" d="M17.42-84.52c0,4.31-.23,8.7,0,13-1.47,12.23,11.09,28.16,22,16-2.41,10.37-6,19.98-6,31,0,11.01,12.45,15.96,22,15-3,4.79-4.19,10.96-1,16-4.58,1.01-10.28,1.59-13,6C27.57,1.28,15.78,31.62,33.42,32.48c-5.59,9.01,2.73,19.58,11,23-6.03,10.44-10.8,16.23-13,29s9.35,19.56,21,20c7.32,.28,16.49,1.1,23,1,24.66-3.23,15.9-34.77,5-48,8.17-6.44,13.45-16.26,12-27,15.37,1.1,10.32-28.23-2.78-21.78-13.09,6.46-19.26-5.83-34.22-3.22-1.31-3.32,3.16-3.48,3-6-3.44,.31-2.84-3.03-2-5,2.02,.76,3.62,4.52,6,2-1.41-2.25-2.83-4.62-5-6,13-.47,32.22,4.39,37.07-9.93,4.86-14.31,2.22-24.41-4.07-37.07,7.9-6.72,19.47,8.27,23-6,.68-5.47,0-11.48,0-17,0-6.75,2-20.75-6-22-8-1.24-14.06,5.74-20.75,7.24-6.7,1.51-13.65-1.28-21.23-3.26-7.58-1.98-16.63,1.2-22.99,2.99-6.36,1.8-10.63-13.45-18-9.94-7.38,3.5-7.03,12.59-7.03,19.97m23-3c13.43-10.33,32.75-5.32,46,2,4.25-7.52,6.49-5.67,15.03-9.97,8.53-4.3,6.65,11.16,7.3,16.64,.65,5.48,2.78,21.41-5.4,17.4-8.19-4.01-11.94-.37-18.16,3.7-6.22,4.07-16.87-1.55-22,4-5.13,5.56-5.12,12.87-3,19.46,2.12,6.59,12.26,8.08,16.23,1.77-2.23,9.2-13.83,8.7-22.07,5.07-8.25-3.63-6.84-14.05-3.95-21.09,2.88-7.05-10.89-15.47-16.73-9.73-5.83,5.75-12.52-5.74-12.18-13.32,.35-7.59,.01-20.46,2.93-27.93,6.58,1.05,11.83,6.87,16,12m4,35c1.55,7.3-5.28,15.27,.31,22.69,5.58,7.43,10.78,8.49,19.71,9.29,8.94,.79,15.66-2.49,16.98-11.98,1.31-9.5-15.22-12.6-10-2-8.47,2.95-8.94-6.63-6.01-13.01s14.95-2.66,21.01-4.99c6.5,9.95,5.08,15.59,4.68,27.68-.41,12.09-16.47,11.15-25.68,10.32s-24.33,2.91-26.92-8.08c-2.59-10.99,3.75-20.59,5.92-29.92M97.42,18.48c.07,2.57-2.32,4.63-3,7-1.57,.39-4.22-.94-5,1-.9,.61-1.21,2.76-3,2,2.27,8.16,.63,13.75-4.3,20.7-4.94,6.95-11.82,5.87-19.7,5.3-7.88-.57-14.18-.59-20.75-6.25-6.57-5.65-2.76-12.31-5.25-18.75-3.78-3.93-9.41-1.72-7-9,3.02-9.13,7.31-1.45,12.03-2.03,4.71-.58,7.31-7.51,13.19-7.75,5.89-.23,13.27,.51,18.01,2.55,4.74,2.04,8.79,8.5,12.52,3.98s12.05-5.94,12.25,1.25M52.42,59.48c5.98,.1,12.03-.36,18,0,1.99,.12,4-.09,6,0,6.04,11.15,19.32,32.91,2,40,.27-4.8,.9-12.71-6-12-1.66,1.64-6.86,1.28-9,4-2.2,2.79-.56,8.64-5,9,1.62-5.03,1.55-10.49-3-14-.4-.2-1,0-1,0-7.25-.78-10.35,4.25-10,11-11.28-.13-8.42-15.09-5.23-21.23,3.2-6.14,5.15-18.31,13.23-16.77m-3,40c-1.21-2.62,.69-10.73,4.23-8.21,3.54,2.52-1.43,8.4-4.23,8.21m24-7c1.31,4.71-1.75,9.52-7,8-.79-4.25,2.56-8.51,7-8Z"/><path class="a`" d="M29.42,20.48c2.9-2.97,4.1,.35,7.25,1.75,3.14,1.41-.25,7.39-.25,7.25,2.49,6.44-1.32,13.1,5.25,18.75,6.57,5.66,12.87,5.68,20.75,6.25,7.88,.57,14.76,1.65,19.7-5.3,4.93-6.95,6.57-12.54,4.3-20.7,1.79,.76,2.1-1.39,3-2-.97,.06-1.79,1.57-3,1-.89-6.14,5.15-10.68,11-9-.2-7.19-8.52-5.77-12.25-1.25s-7.78-1.94-12.52-3.98c-4.74-2.04-12.12-2.78-18.01-2.55-5.88,.24-8.48,7.17-13.19,7.75-4.72,.58-9.01-7.1-12.03,2.03m49,6c6.11,2.08,2.71,13.77-4.08,11.06-6.8-2.7-3.4-13.61,4.08-11.06m-30,1c5.74,2.8,0,14.18-6.07,10.07-6.07-4.11-.13-13.1,6.07-10.07m14,5c8.34,3.38,3.36,21.74-6.22,17.22-9.59-4.52-3.35-21.1,6.22-17.22Z"/><path class="ad" d="M89.42,26.48c.78-1.94,3.43-.61,5-1,.68-2.37,3.07-4.43,3-7-5.85-1.68-11.89,2.86-11,9,1.21,.57,2.03-.94,3-1Z"/><path class="ae" d="M29.42,20.48c-2.41,7.28,3.22,5.07,7,9,0,.14,3.39-5.84,.25-7.25-3.15-1.4-4.35-4.72-7.25-1.75Z"/><path class="y" d="M78.42,26.48c-7.48-2.55-10.88,8.36-4.08,11.06,6.79,2.71,10.19-8.98,4.08-11.06m-2,4c2.03,.92,.88,5.74-1.7,4.64-2.58-1.1-.69-5.73,1.7-4.64Z"/><path class="ae" d="M48.42,27.48c-6.2-3.03-12.14,5.96-6.07,10.07,6.06,4.11,11.81-7.27,6.07-10.07m-1,3c.49,8.46-8.54-1.3,0,0Z"/><path class="aa" d="M76.42,30.48c-2.39-1.09-4.28,3.54-1.7,4.64,2.58,1.1,3.73-3.72,1.7-4.64Z"/><path class="d" d="M62.42,32.48c-9.57-3.88-15.81,12.7-6.22,17.22,9.58,4.52,14.56-13.84,6.22-17.22Z"/><path class="v" d="M54.42,86.48c-3.63-.64-1.38-3.42-3-5-3.79-.36-7.83-3.66-7-8,3.99-1.54,5.25,3.84,9,3-1.48-1.76-1.17-4.21,0-6-.25-2.51-4.17-8.71-1-11-8.08-1.54-10.03,10.63-13.23,16.77-3.19,6.14-6.05,21.1,5.23,21.23-.35-6.75,2.75-11.78,10-11Z"/><path class="ag" d="M53.42,70.48c1.39,1.74,5.55,1.57,4.98,6.02-.58,4.45-2.56,5.39-6.98,4.98,1.62,1.58-.63,4.36,3,5,0,0,.6-.2,1,0,2.83,1.38,4.46,5.24,8,5,2.14-2.72,7.34-2.36,9-4-.51-.53,.43-2.39,0-3-1.44-2.06-4.1-.97-3.99-5.01,.11-4.04,1.25-4.15,2.99-6.99,2.04-3.33,3.92-11.07-1-13-5.97-.36-12.02,.1-18,0-3.17,2.29,.75,8.49,1,11Z"/><path class="ac" d="M71.42,72.48c5.49-2.53,2.39,4.19,2,7,7.47-6.76,6.83,7.48-1,5,.43,.61-.51,2.47,0,3,6.9-.71,6.27,7.2,6,12,17.32-7.09,4.04-28.85-2-40-2-.09-4.01,.12-6,0,4.92,1.93,3.04,9.67,1,13Z"/><path class="u" d="M51.42,81.48c4.42,.41,6.4-.53,6.98-4.98,.57-4.45-3.59-4.28-4.98-6.02-1.17,1.79-1.48,4.24,0,6-3.75,.84-5.01-4.54-9-3-.83,4.34,3.21,7.64,7,8Z"/><path class="w" d="M71.42,72.48c-1.74,2.84-2.88,2.95-2.99,6.99-.11,4.04,2.55,2.95,3.99,5.01,7.83,2.48,8.47-11.76,1-5,.39-2.81,3.49-9.53-2-7Z"/><path class="b" d="M63.42,91.48c-3.54,.24-5.17-3.62-8-5,4.55,3.51,4.62,8.97,3,14,4.44-.36,2.8-6.21,5-9Z"/><path class="af" d="M49.42,99.48c2.8,.19,7.77-5.69,4.23-8.21-3.54-2.52-5.44,5.59-4.23,8.21Z"/><path class="c" d="M73.42,92.48c-4.44-.51-7.79,3.75-7,8,5.25,1.52,8.31-3.29,7-8Z"/><path class="x" d="M75.42,99.48c-6.51,.1-15.68-.72-23-1,6.67,.95,15.56,1.83,23,1Z"/></svg>