<?xml version="1.0" encoding="UTF-8"?><svg id="a" xmlns="http://www.w3.org/2000/svg" viewBox="0 0 125.59 125.59"><defs><style>.b{fill:#44551e;}.c{fill:#8eb942;}.d{stroke:#8eb942;}.d,.e,.f,.g,.h{fill:none;stroke-width:.3px;}.e{stroke:#44551e;}.i{fill:#070a07;}.f{stroke:#070a07;}.j{fill:#8fbb42;}.g{stroke:#8fbb42;}.h{stroke:#405a18;}.k{fill:#405a18;}</style></defs><path class="f" d="M46.81,29.14c-1.88-7.13-14.53-11.39-18.08-3.08-3.54,8.32,.07,16.51-1.92,25.08-1.98,8.57,8.87,12.56,14,16-2.47,2.53-2.78,5.92-4,9-7.7-3.88-20.19-7.62-24.22,2.78s9.06,13.5,14.22,18.22c-12.54-2.95-15.73,12.61-4,12s19.9-.1,29.99-3.01,16.73,1.84,26.01-.99c2.22,8.77,39.88,5.08,23-6,5.11-4.17,16.06-8.95,12.77-17.77-3.29-8.82-17.24-4.78-23.77-3.23-.77-4.2-2.88-7.95-4-12,5.6-2.09,16.33-8.8,11.99-16.99s-1.28-14.37-6.24-22.76-14.41,1.69-20.68,1.68c-6.27,0-18.07-.39-25.07,1.07m-9-3c5.01,.71,6.94,9.55,13.67,7.67,6.73-1.88,13.56-3.59,20.4-.74,6.84,2.84,7.21-6.21,13.96-5.9,6.74,.3,1.87,13.25,6.22,16.72,4.35,3.48,3.1,12.54-2,15.5-5.11,2.95-11.09,3.57-17.26,4.74-6.17,1.17-15.24,1.59-21.99,1.01s-9.12-3.7-15.23-6.77c-6.11-3.07-2.87-13.23-1.85-17.31,1.03-4.07-5.88-16.33,4.08-14.92m48,76c-.93-1.93,1.52-7.75-1-9-.96-.19-2.03,.16-3,0,1.91,3.64-1.58,10.33-4.74,6.74-3.17-3.59,.26-8.75-6.26-7.74-.6,3.26,.83,5.92,1,9-3.46,.21-6.4-1.7-10-1,2.77-12.32-5.14-5.67-8,1-3.16-3.3,3.17-12.32-5-11v4c-1.49,7.17,1.44,8.33-7,9-6.71,.53-14.84,2.29-21,0,4.69-1.98,22.67-1.39,16.91-7.92-5.75-6.52-14.53-1.99-19.66-9.33-5.12-7.35,8.17-13.31,14.97-5.97,6.81,7.33,10.36-5.26,11.78-11.78,7.37,1.62,16.98,3.88,25,2s13.89-4.73,15.31,5.69c1.41,10.43,7.33,8.38,15.69,5.31,8.37-3.06,11.67,5.25,4.75,9.75s-14.09,5.92-10.75,13.25c-2.76-.84-8.57,1.96-9-2Z"/><path class="g" d="M37.81,26.14c-9.96-1.41-3.05,10.85-4.08,14.92-1.02,4.08-4.26,14.24,1.85,17.31,6.11,3.07,8.48,6.19,15.23,6.77s15.82,.16,21.99-1.01c6.17-1.17,12.15-1.79,17.26-4.74,5.1-2.96,6.35-12.02,2-15.5-4.35-3.47,.52-16.42-6.22-16.72-6.75-.31-7.12,8.74-13.96,5.9-6.84-2.85-13.67-1.14-20.4,.74-6.73,1.88-8.66-6.96-13.67-7.67m2,10c-8.91,1.36,1.27-8.97,0,0m44,0c-1.36-8.91,8.98,1.27,0,0Z"/><path class="d" d="M41.81,103.14c1.41-.24,3.91-1.87,6-1,.56-2.52-1.19-6.3,1-8v-4c8.17-1.32,1.84,7.7,5,11,2.86-6.67,10.77-13.32,8-1,3.6-.7,6.54,1.21,10,1-.17-3.08-1.6-5.74-1-9,6.52-1.01,3.09,4.15,6.26,7.74,3.16,3.59,6.65-3.1,4.74-6.74,.97,.16,2.04-.19,3,0,4.5,.91,.5,7.77,1,9,.43,3.96,6.24,1.16,9,2-3.34-7.33,3.83-8.75,10.75-13.25s3.62-12.81-4.75-9.75c-8.36,3.07-14.28,5.12-15.69-5.31-1.42-10.42-7.29-7.57-15.31-5.69s-17.63-.38-25-2c-1.42,6.52-4.97,19.11-11.78,11.78-6.8-7.34-20.09-1.38-14.97,5.97,5.13,7.34,13.91,2.81,19.66,9.33,5.76,6.53-12.22,5.94-16.91,7.92,6.16,2.29,14.29,.53,21,0Z"/><path class="e" d="M85.81,102.14c-.5-1.23,3.5-8.09-1-9,2.52,1.25,.07,7.07,1,9Z"/><path class="h" d="M41.81,103.14c8.44-.67,5.51-1.83,7-9-2.19,1.7-.44,5.48-1,8-2.09-.87-4.59,.76-6,1Z"/><path class="i" d="M46.81,29.14c-1.88-7.13-14.53-11.39-18.08-3.08-3.54,8.32,.07,16.51-1.92,25.08-1.98,8.57,8.87,12.56,14,16-2.47,2.53-2.78,5.92-4,9-7.7-3.88-20.19-7.62-24.22,2.78s9.06,13.5,14.22,18.22c-12.54-2.95-15.73,12.61-4,12s19.9-.1,29.99-3.01,16.73,1.84,26.01-.99c2.22,8.77,39.88,5.08,23-6,5.11-4.17,16.06-8.95,12.77-17.77-3.29-8.82-17.24-4.78-23.77-3.23-.77-4.2-2.88-7.95-4-12,5.6-2.09,16.33-8.8,11.99-16.99s-1.28-14.37-6.24-22.76-14.41,1.69-20.68,1.68c-6.27,0-18.07-.39-25.07,1.07m-9-3c5.01,.71,6.94,9.55,13.67,7.67,6.73-1.88,13.56-3.59,20.4-.74,6.84,2.84,7.21-6.21,13.96-5.9,6.74,.3,1.87,13.25,6.22,16.72,4.35,3.48,3.1,12.54-2,15.5-5.11,2.95-11.09,3.57-17.26,4.74-6.17,1.17-15.24,1.59-21.99,1.01s-9.12-3.7-15.23-6.77c-6.11-3.07-2.87-13.23-1.85-17.31,1.03-4.07-5.88-16.33,4.08-14.92m48,76c-.93-1.93,1.52-7.75-1-9-.96-.19-2.03,.16-3,0,1.91,3.64-1.58,10.33-4.74,6.74-3.17-3.59,.26-8.75-6.26-7.74-.6,3.26,.83,5.92,1,9-3.46,.21-6.4-1.7-10-1,2.77-12.32-5.14-5.67-8,1-3.16-3.3,3.17-12.32-5-11v4c-1.49,7.17,1.44,8.33-7,9-6.71,.53-14.84,2.29-21,0,4.69-1.98,22.67-1.39,16.91-7.92-5.75-6.52-14.53-1.99-19.66-9.33-5.12-7.35,8.17-13.31,14.97-5.97,6.81,7.33,10.36-5.26,11.78-11.78,7.37,1.62,16.98,3.88,25,2s13.89-4.73,15.31,5.69c1.41,10.43,7.33,8.38,15.69,5.31,8.37-3.06,11.67,5.25,4.75,9.75s-14.09,5.92-10.75,13.25c-2.76-.84-8.57,1.96-9-2Z"/><path class="j" d="M37.81,26.14c-9.96-1.41-3.05,10.85-4.08,14.92-1.02,4.08-4.26,14.24,1.85,17.31,6.11,3.07,8.48,6.19,15.23,6.77s15.82,.16,21.99-1.01c6.17-1.17,12.15-1.79,17.26-4.74,5.1-2.96,6.35-12.02,2-15.5-4.35-3.47,.52-16.42-6.22-16.72-6.75-.31-7.12,8.74-13.96,5.9-6.84-2.85-13.67-1.14-20.4,.74-6.73,1.88-8.66-6.96-13.67-7.67m2,10c-8.91,1.36,1.27-8.97,0,0m44,0c-1.36-8.91,8.98,1.27,0,0Z"/><path class="c" d="M41.81,103.14c1.41-.24,3.91-1.87,6-1,.56-2.52-1.19-6.3,1-8v-4c8.17-1.32,1.84,7.7,5,11,2.86-6.67,10.77-13.32,8-1,3.6-.7,6.54,1.21,10,1-.17-3.08-1.6-5.74-1-9,6.52-1.01,3.09,4.15,6.26,7.74,3.16,3.59,6.65-3.1,4.74-6.74,.97,.16,2.04-.19,3,0,4.5,.91,.5,7.77,1,9,.43,3.96,6.24,1.16,9,2-3.34-7.33,3.83-8.75,10.75-13.25s3.62-12.81-4.75-9.75c-8.36,3.07-14.28,5.12-15.69-5.31-1.42-10.42-7.29-7.57-15.31-5.69s-17.63-.38-25-2c-1.42,6.52-4.97,19.11-11.78,11.78-6.8-7.34-20.09-1.38-14.97,5.97,5.13,7.34,13.91,2.81,19.66,9.33,5.76,6.53-12.22,5.94-16.91,7.92,6.16,2.29,14.29,.53,21,0Z"/><path class="b" d="M85.81,102.14c-.5-1.23,3.5-8.09-1-9,2.52,1.25,.07,7.07,1,9Z"/><path class="k" d="M41.81,103.14c8.44-.67,5.51-1.83,7-9-2.19,1.7-.44,5.48-1,8-2.09-.87-4.59,.76-6,1Z"/></svg>