<?xml version="1.0" encoding="UTF-8"?><svg id="a" xmlns="http://www.w3.org/2000/svg" viewBox="0 0 125.59 125.59"><defs><style>.b{stroke:#2c2722;}.b,.c,.d,.e,.f,.g{fill:none;stroke-width:.3px;}.h{fill:#958d84;}.i{fill:#968e84;}.c{stroke:#bdbebf;}.d{stroke:#1f1610;}.e{stroke:#090707;}.j{fill:#bdbebf;}.f{stroke:#958d84;}.k{fill:#2c2722;}.l{fill:#1f1610;}.m{fill:#090707;}.g{stroke:#968e84;}</style></defs><path class="e" d="M82.83,20.14c-7.66-3.87-18.25-4.42-27-4-8.74,.43-15.96,6.94-23.33,2.33-7.37-4.61-16.13,12.28-4.9,14.9,11.23,2.62,4.22,13.38,4.57,21.09,.34,7.72-.26,15.02-4.41,22.61-4.16,7.58-3.11,17.24,2.82,23.32s15.56,6.44,23.58,7.42c8.02,.98,19.71,.76,26.65-2.69,6.93-3.46,16.64-2.81,21.1-9.9,4.45-7.1,2.51-17.76-2.78-24.38-5.29-6.63-1.8-13.03-4.3-21.7s-3.15-16.07,3.67-23.33c6.82-7.26-12.85-15.62-15.67-5.67m11,0c-3.02,5.38-6.57,12.19-5.67,18.67,.9,6.48,6.14,16.16,2.41,21.07-3.73,4.92-14.7,5.21-20.41,1.93-5.71-3.28-12.58,.24-19.33,1.33s-14.4-5.38-12.69-10.69c1.71-5.32,4.35-17.07-1.56-20.06-5.92-2.98-11.59-11.16-3-7,8.59,4.15,9.87-4.01,17.92-3.58,8.06,.43,16.72-3.49,24,.66,7.29,4.15,11.1,.35,18.33-2.33m-4,72c-5.78-.26-4.18,10.31-12,7-.3-11.34-9.51-4.87-4,3-4.63,1.71-9.99,.76-15,1,.21-3.01,1.56-5.77,1-9-5.69-2.17-3.42,6.16-8,6-1.84-3.2-1.38-9.5-7-8-.7,3.28,1.43,5.77,1,9-7.41,2.28-16.6-6.63-16-13,.61-6.38,5.09-17.73,7.92-22.08,2.84-4.34,10.9,15.61,16.15,9.15,5.25-6.45,9.21-13.13,16.16-8.3,6.95,4.83,10.04,12.83,16.07,3.53,6.03-9.29,7.92,4.23,12.01,9.39,4.08,5.17-3.23,23.77-8.31,12.31m-36-23c-1.24,3.19-5.85,1.7-7-1,1.34-1.15,5.55-.21,7,1Z"/><path class="g" d="M93.83,20.14c-7.23,2.68-11.04,6.48-18.33,2.33-7.28-4.15-15.94-.23-24-.66-8.05-.43-9.33,7.73-17.92,3.58-8.59-4.16-2.92,4.02,3,7,5.91,2.99,3.27,14.74,1.56,20.06-1.71,5.31,5.94,11.78,12.69,10.69s13.62-4.61,19.33-1.33c5.71,3.28,16.68,2.99,20.41-1.93,3.73-4.91-1.51-14.59-2.41-21.07-.9-6.48,2.65-13.29,5.67-18.67m-14,19c2.53,1.23,.22,6.46-2.68,4.66-2.9-1.8-.14-6.03,2.68-4.66m-29,2c1.72,1.72-1.47,5.85-3.67,3.67-2.2-2.18,2-5.34,3.67-3.67Z"/><path class="b" d="M79.83,39.14c-2.82-1.37-5.58,2.86-2.68,4.66,2.9,1.8,5.21-3.43,2.68-4.66Z"/><path class="d" d="M50.83,41.14c-1.67-1.67-5.87,1.49-3.67,3.67,2.2,2.18,5.39-1.95,3.67-3.67Z"/><path class="f" d="M89.83,92.14c5.08,11.46,12.39-7.14,8.31-12.31-4.09-5.16-5.98-18.68-12.01-9.39-6.03,9.3-9.12,1.3-16.07-3.53-6.95-4.83-10.91,1.85-16.16,8.3-5.25,6.46-13.31-13.49-16.15-9.15-2.83,4.35-7.31,15.7-7.92,22.08-.6,6.37,8.59,15.28,16,13,.43-3.23-1.7-5.72-1-9,5.62-1.5,5.16,4.8,7,8,4.58,.16,2.31-8.17,8-6,.56,3.23-.79,5.99-1,9,5.01-.24,10.37,.71,15-1-5.51-7.87,3.7-14.34,4-3,7.82,3.31,6.22-7.26,12-7Z"/><path class="c" d="M53.83,69.14c-1.45-1.21-5.66-2.15-7-1,1.15,2.7,5.76,4.19,7,1Z"/><path class="m" d="M82.83,20.14c-7.66-3.87-18.25-4.42-27-4-8.74,.43-15.96,6.94-23.33,2.33-7.37-4.61-16.13,12.28-4.9,14.9,11.23,2.62,4.22,13.38,4.57,21.09,.34,7.72-.26,15.02-4.41,22.61-4.16,7.58-3.11,17.24,2.82,23.32s15.56,6.44,23.58,7.42c8.02,.98,19.71,.76,26.65-2.69,6.93-3.46,16.64-2.81,21.1-9.9,4.45-7.1,2.51-17.76-2.78-24.38-5.29-6.63-1.8-13.03-4.3-21.7s-3.15-16.07,3.67-23.33c6.82-7.26-12.85-15.62-15.67-5.67m11,0c-3.02,5.38-6.57,12.19-5.67,18.67,.9,6.48,6.14,16.16,2.41,21.07-3.73,4.92-14.7,5.21-20.41,1.93-5.71-3.28-12.58,.24-19.33,1.33s-14.4-5.38-12.69-10.69c1.71-5.32,4.35-17.07-1.56-20.06-5.92-2.98-11.59-11.16-3-7,8.59,4.15,9.87-4.01,17.92-3.58,8.06,.43,16.72-3.49,24,.66,7.29,4.15,11.1,.35,18.33-2.33m-4,72c-5.78-.26-4.18,10.31-12,7-.3-11.34-9.51-4.87-4,3-4.63,1.71-9.99,.76-15,1,.21-3.01,1.56-5.77,1-9-5.69-2.17-3.42,6.16-8,6-1.84-3.2-1.38-9.5-7-8-.7,3.28,1.43,5.77,1,9-7.41,2.28-16.6-6.63-16-13,.61-6.38,5.09-17.73,7.92-22.08,2.84-4.34,10.9,15.61,16.15,9.15,5.25-6.45,9.21-13.13,16.16-8.3,6.95,4.83,10.04,12.83,16.07,3.53,6.03-9.29,7.92,4.23,12.01,9.39,4.08,5.17-3.23,23.77-8.31,12.31m-36-23c-1.24,3.19-5.85,1.7-7-1,1.34-1.15,5.55-.21,7,1Z"/><path class="i" d="M93.83,20.14c-7.23,2.68-11.04,6.48-18.33,2.33-7.28-4.15-15.94-.23-24-.66-8.05-.43-9.33,7.73-17.92,3.58-8.59-4.16-2.92,4.02,3,7,5.91,2.99,3.27,14.74,1.56,20.06-1.71,5.31,5.94,11.78,12.69,10.69s13.62-4.61,19.33-1.33c5.71,3.28,16.68,2.99,20.41-1.93,3.73-4.91-1.51-14.59-2.41-21.07-.9-6.48,2.65-13.29,5.67-18.67m-14,19c2.53,1.23,.22,6.46-2.68,4.66-2.9-1.8-.14-6.03,2.68-4.66m-29,2c1.72,1.72-1.47,5.85-3.67,3.67-2.2-2.18,2-5.34,3.67-3.67Z"/><path class="k" d="M79.83,39.14c-2.82-1.37-5.58,2.86-2.68,4.66,2.9,1.8,5.21-3.43,2.68-4.66Z"/><path class="l" d="M50.83,41.14c-1.67-1.67-5.87,1.49-3.67,3.67,2.2,2.18,5.39-1.95,3.67-3.67Z"/><path class="h" d="M89.83,92.14c5.08,11.46,12.39-7.14,8.31-12.31-4.09-5.16-5.98-18.68-12.01-9.39-6.03,9.3-9.12,1.3-16.07-3.53-6.95-4.83-10.91,1.85-16.16,8.3-5.25,6.46-13.31-13.49-16.15-9.15-2.83,4.35-7.31,15.7-7.92,22.08-.6,6.37,8.59,15.28,16,13,.43-3.23-1.7-5.72-1-9,5.62-1.5,5.16,4.8,7,8,4.58,.16,2.31-8.17,8-6,.56,3.23-.79,5.99-1,9,5.01-.24,10.37,.71,15-1-5.51-7.87,3.7-14.34,4-3,7.82,3.31,6.22-7.26,12-7Z"/><path class="j" d="M53.83,69.14c-1.45-1.21-5.66-2.15-7-1,1.15,2.7,5.76,4.19,7,1Z"/></svg>