<?xml version="1.0" encoding="UTF-8"?><svg id="a" xmlns="http://www.w3.org/2000/svg" viewBox="0 0 125.59 125.59"><defs><style>.b{stroke:#6d5a3a;}.b,.c,.d,.e,.f,.g,.h,.i,.j,.k{fill:none;stroke-width:.3px;}.c{stroke:#0d0a08;}.d{stroke:#643d03;}.e{stroke:#2f2112;}.l{fill:#643d03;}.f{stroke:#30241c;}.m{fill:#cc7c07;}.n{fill:#0d0a08;}.g{stroke:#d9b77a;}.o{fill:#d4b379;}.p{fill:#6d5a3a;}.h{stroke:#bca370;}.q{fill:#c4a873;}.i{stroke:#d4b379;}.r{fill:#d9b77a;}.s{fill:#2f2112;}.j{stroke:#cc7c07;}.k{stroke:#c4a873;}.t{fill:#30241c;}.u{fill:#bca370;}</style></defs><path class="c" d="M74.13,7.41c-2.92-5.24-9.51-3.38-14.31-2.31-4.79,1.08-10.28,1.81-14.69,4.31-2.41-5.77-6.03-.8-8,1C23.62-3.36,18.18,22.68,9.13,26.41c-.53,3.04,3.34,8.75-2,9,3.11,7.04-2.44,13.15,3,19-8.42,5.1,4.74,13.7,3,21,3.51,2.44,9.74,2.84,10,8,7.23-2.39,14.38,3.53,21,1-5,7.23-9.77,27.35,.93,32.07,10.69,4.73,26.93,5.62,37.99,.85,11.06-4.78,.32-24.28-.92-31.92,7.26,2.17,15.46-1,19-7,10.72,3.89,6.6-7.45,13-10,.79-3.11-1.74-5.22-2-8,6.15,.04,5.54-6.51,3-10,2.82-3.86,6.57-13.96,.3-19.3-6.27-5.34,3.3-12.91-.55-19.45-3.84-6.55-15.74-5.56-19.75-.25-6.97-1.41-14.34-11.12-21-4m28,39c.29-4.3,.42-9.1-1-13-4.26-7.9-11.38-1.88-17,1-4.87,.61-7.28-5.31-12-5-1.06,2.67-3.26,4.92-3,8-4.07-7.52-12.62-9.25-16,0-4.51-9.36-12.75-1.54-18,3-3-15.65-12.34,3.67-13,15-.66,11.34,12.65,21.39,25,20-.25,3.94-7.3,.24-8,5-7.6-1.72-15.24-3.98-22-8-.3-4.62-1.57-9.89-5-13,4.39-5.83,1.67-14.11,0-21,3.75-6.11,5.28-15.01,14.01-15.99,8.73-.98,13.69-9.66,20.99-6.01,4.85-8.85,16.92-1.27,21-7,3.12,1.47,7.86,5.53,10,0,5.16,5.61,16.4,3.79,22.02,7.98,5.63,4.18,8.22,12.36,11.9,18.1,3.69,5.73-6.26,14.63-.92,20.92-6.4,2.74-2.8,11.4-6,17-3.13-.03-8.98-1.03-8,4-6.49,.92-15.71,7.19-20-2,15.77,.43,23.76-15.53,25-29M34.13,12.41c-1.3,2.89-6.55,4.41-10,5-.56-5.12,6.2-7.81,10-5m76,8c-4.01-1.12-4.65-6.85-9-8,5.09-2.94,12.49,2.19,9,8m-36,51c-6.02,1.16-13.07,.85-19,0-15.06-.57-36.37-6.09-26-26,7.06,3.39,11.93-4.82,18-7,.79,9.38,11.75,2.79,13-3,3.41,7.28,13.92,11.51,14,0,5.5,5.68,9.93,6.33,16,2,1.61,4.54,5.7,2.5,8,0,.62,14.96-6.5,34.15-24,34m6,42c.15-7.74-2.67-13.56-5-3s-5.76-12.11-11-8c-.76,4.49,2.1,7.95,3,12-10.13,1.37-3.87-2.49-5-9-1.13-6.52-7.16,2.08-6,6-3.69-1.78-.56-9.83-7-8-.51,3.57,.61,6.64,1,10-15.52-8.37-.27-25.47,2-37,9.44-1.55,24.5-1.11,24.99,10.01,.49,11.12,10.68,17.53,3.01,26.99Z"/><path class="j" d="M101.13,33.41c2.42,4.48,1.88,8.11,1,13-1.24,13.47-9.23,29.43-25,29,4.29,9.19,13.51,2.92,20,2-.98-5.03,4.87-4.03,8-4,3.2-5.6-.4-14.26,6-17-5.34-6.29,4.61-15.19,.92-20.92-3.68-5.74-6.27-13.92-11.9-18.1-5.62-4.19-16.86-2.37-22.02-7.98-2.14,5.53-6.88,1.47-10,0-4.08,5.73-16.15-1.85-21,7-7.3-3.65-12.26,5.03-20.99,6.01-8.73,.98-10.26,9.88-14.01,15.99,1.67,6.89,4.39,15.17,0,21,3.43,3.11,4.7,8.38,5,13,6.76,4.02,14.4,6.28,22,8,.7-4.76,7.75-1.06,8-5-12.35,1.39-25.66-8.66-25-20,.66-11.33,10-30.65,13-15,5.25-4.54,13.49-12.36,18-3,3.38-9.25,11.93-7.52,16,0-.26-3.08,1.94-5.33,3-8,4.72-.31,7.13,5.61,12,5,5.62-2.88,12.74-8.9,17-1Z"/><path class="h" d="M34.13,12.41c-3.8-2.81-10.56-.12-10,5,3.45-.59,8.7-2.11,10-5Z"/><path class="k" d="M110.13,20.41c3.49-5.81-3.91-10.94-9-8,4.35,1.15,4.99,6.88,9,8Z"/><path class="d" d="M102.13,46.41c.88-4.89,1.42-8.52-1-13,1.42,3.9,1.29,8.7,1,13Z"/><path class="g" d="M55.13,71.41c6.19,.24,12.83,.49,19,0,17.5,.15,24.62-19.04,24-34-2.3,2.5-6.39,4.54-8,0-6.07,4.33-10.5,3.68-16-2-.08,11.51-10.59,7.28-14,0-1.25,5.79-12.21,12.38-13,3-6.07,2.18-10.94,10.39-18,7-10.37,19.91,10.94,25.43,26,26m-17-22c2.03,.92,.88,5.74-1.7,4.64-2.58-1.1-.69-5.73,1.7-4.64m46,1c2.03,.92,.88,5.74-1.7,4.64-2.58-1.1-.69-5.73,1.7-4.64Z"/><path class="e" d="M38.13,49.41c-2.39-1.09-4.28,3.54-1.7,4.64,2.58,1.1,3.73-3.72,1.7-4.64Z"/><path class="f" d="M84.13,50.41c-2.39-1.09-4.28,3.54-1.7,4.64,2.58,1.1,3.73-3.72,1.7-4.64Z"/><path class="b" d="M74.13,71.41c-6.17,.49-12.81,.24-19,0,5.93,.85,12.98,1.16,19,0Z"/><path class="i" d="M80.13,113.41c7.67-9.46-2.52-15.87-3.01-26.99-.49-11.12-15.55-11.56-24.99-10.01-2.27,11.53-17.52,28.63-2,37-.39-3.36-1.51-6.43-1-10,6.44-1.83,3.31,6.22,7,8-1.16-3.92,4.87-12.52,6-6,1.13,6.51-5.13,10.37,5,9-.9-4.05-3.76-7.51-3-12,5.24-4.11,8.67,18.56,11,8s5.15-4.74,5,3Z"/><path class="n" d="M74.13,7.41c-2.92-5.24-9.51-3.38-14.31-2.31-4.79,1.08-10.28,1.81-14.69,4.31-2.41-5.77-6.03-.8-8,1C23.62-3.36,18.18,22.68,9.13,26.41c-.53,3.04,3.34,8.75-2,9,3.11,7.04-2.44,13.15,3,19-8.42,5.1,4.74,13.7,3,21,3.51,2.44,9.74,2.84,10,8,7.23-2.39,14.38,3.53,21,1-5,7.23-9.77,27.35,.93,32.07,10.69,4.73,26.93,5.62,37.99,.85,11.06-4.78,.32-24.28-.92-31.92,7.26,2.17,15.46-1,19-7,10.72,3.89,6.6-7.45,13-10,.79-3.11-1.74-5.22-2-8,6.15,.04,5.54-6.51,3-10,2.82-3.86,6.57-13.96,.3-19.3-6.27-5.34,3.3-12.91-.55-19.45-3.84-6.55-15.74-5.56-19.75-.25-6.97-1.41-14.34-11.12-21-4m28,39c.29-4.3,.42-9.1-1-13-4.26-7.9-11.38-1.88-17,1-4.87,.61-7.28-5.31-12-5-1.06,2.67-3.26,4.92-3,8-4.07-7.52-12.62-9.25-16,0-4.51-9.36-12.75-1.54-18,3-3-15.65-12.34,3.67-13,15-.66,11.34,12.65,21.39,25,20-.25,3.94-7.3,.24-8,5-7.6-1.72-15.24-3.98-22-8-.3-4.62-1.57-9.89-5-13,4.39-5.83,1.67-14.11,0-21,3.75-6.11,5.28-15.01,14.01-15.99,8.73-.98,13.69-9.66,20.99-6.01,4.85-8.85,16.92-1.27,21-7,3.12,1.47,7.86,5.53,10,0,5.16,5.61,16.4,3.79,22.02,7.98,5.63,4.18,8.22,12.36,11.9,18.1,3.69,5.73-6.26,14.63-.92,20.92-6.4,2.74-2.8,11.4-6,17-3.13-.03-8.98-1.03-8,4-6.49,.92-15.71,7.19-20-2,15.77,.43,23.76-15.53,25-29M34.13,12.41c-1.3,2.89-6.55,4.41-10,5-.56-5.12,6.2-7.81,10-5m76,8c-4.01-1.12-4.65-6.85-9-8,5.09-2.94,12.49,2.19,9,8m-36,51c-6.02,1.16-13.07,.85-19,0-15.06-.57-36.37-6.09-26-26,7.06,3.39,11.93-4.82,18-7,.79,9.38,11.75,2.79,13-3,3.41,7.28,13.92,11.51,14,0,5.5,5.68,9.93,6.33,16,2,1.61,4.54,5.7,2.5,8,0,.62,14.96-6.5,34.15-24,34m6,42c.15-7.74-2.67-13.56-5-3s-5.76-12.11-11-8c-.76,4.49,2.1,7.95,3,12-10.13,1.37-3.87-2.49-5-9-1.13-6.52-7.16,2.08-6,6-3.69-1.78-.56-9.83-7-8-.51,3.57,.61,6.64,1,10-15.52-8.37-.27-25.47,2-37,9.44-1.55,24.5-1.11,24.99,10.01,.49,11.12,10.68,17.53,3.01,26.99Z"/><path class="m" d="M101.13,33.41c2.42,4.48,1.88,8.11,1,13-1.24,13.47-9.23,29.43-25,29,4.29,9.19,13.51,2.92,20,2-.98-5.03,4.87-4.03,8-4,3.2-5.6-.4-14.26,6-17-5.34-6.29,4.61-15.19,.92-20.92-3.68-5.74-6.27-13.92-11.9-18.1-5.62-4.19-16.86-2.37-22.02-7.98-2.14,5.53-6.88,1.47-10,0-4.08,5.73-16.15-1.85-21,7-7.3-3.65-12.26,5.03-20.99,6.01-8.73,.98-10.26,9.88-14.01,15.99,1.67,6.89,4.39,15.17,0,21,3.43,3.11,4.7,8.38,5,13,6.76,4.02,14.4,6.28,22,8,.7-4.76,7.75-1.06,8-5-12.35,1.39-25.66-8.66-25-20,.66-11.33,10-30.65,13-15,5.25-4.54,13.49-12.36,18-3,3.38-9.25,11.93-7.52,16,0-.26-3.08,1.94-5.33,3-8,4.72-.31,7.13,5.61,12,5,5.62-2.88,12.74-8.9,17-1Z"/><path class="u" d="M34.13,12.41c-3.8-2.81-10.56-.12-10,5,3.45-.59,8.7-2.11,10-5Z"/><path class="q" d="M110.13,20.41c3.49-5.81-3.91-10.94-9-8,4.35,1.15,4.99,6.88,9,8Z"/><path class="l" d="M102.13,46.41c.88-4.89,1.42-8.52-1-13,1.42,3.9,1.29,8.7,1,13Z"/><path class="r" d="M55.13,71.41c6.19,.24,12.83,.49,19,0,17.5,.15,24.62-19.04,24-34-2.3,2.5-6.39,4.54-8,0-6.07,4.33-10.5,3.68-16-2-.08,11.51-10.59,7.28-14,0-1.25,5.79-12.21,12.38-13,3-6.07,2.18-10.94,10.39-18,7-10.37,19.91,10.94,25.43,26,26m-17-22c2.03,.92,.88,5.74-1.7,4.64-2.58-1.1-.69-5.73,1.7-4.64m46,1c2.03,.92,.88,5.74-1.7,4.64-2.58-1.1-.69-5.73,1.7-4.64Z"/><path class="s" d="M38.13,49.41c-2.39-1.09-4.28,3.54-1.7,4.64,2.58,1.1,3.73-3.72,1.7-4.64Z"/><path class="t" d="M84.13,50.41c-2.39-1.09-4.28,3.54-1.7,4.64,2.58,1.1,3.73-3.72,1.7-4.64Z"/><path class="p" d="M74.13,71.41c-6.17,.49-12.81,.24-19,0,5.93,.85,12.98,1.16,19,0Z"/><path class="o" d="M80.13,113.41c7.67-9.46-2.52-15.87-3.01-26.99-.49-11.12-15.55-11.56-24.99-10.01-2.27,11.53-17.52,28.63-2,37-.39-3.36-1.51-6.43-1-10,6.44-1.83,3.31,6.22,7,8-1.16-3.92,4.87-12.52,6-6,1.13,6.51-5.13,10.37,5,9-.9-4.05-3.76-7.51-3-12,5.24-4.11,8.67,18.56,11,8s5.15-4.74,5,3Z"/></svg>