<?xml version="1.0" encoding="UTF-8"?><svg id="a" xmlns="http://www.w3.org/2000/svg" viewBox="0 0 125.59 125.59"><defs><style>.b{fill:#608d26;}.c{stroke:#507224;}.c,.d,.e,.f,.g,.h,.i,.j,.k,.l{fill:none;}.c,.d,.e,.f,.g,.h,.i,.k,.l{stroke-width:.3px;}.m{fill:#223b10;}.n{fill:#060605;}.d{stroke:#516f29;}.e{stroke:#486521;}.o{fill:#507224;}.f{stroke:#2c4112;}.p{fill:#516f29;}.g{stroke:#69696a;}.h{stroke:#223b10;}.i{stroke:#85520f;}.j{stroke:#060605;stroke-width:.21px;}.q{fill:#69696a;}.k{stroke:#572;}.r{fill:#486521;}.s{fill:#572;}.t{fill:#85520f;}.u{fill:#2c4112;}.l{stroke:#608d26;}</style></defs><path class="j" d="M73.75,113.51c10.68-4.6-.51-19.65,7-28,5.81,4.16,14.73-1.01,10.92-6.92-3.82-5.91-6.89-5.58-11.92-9.08,9.05-3.65,19.29-16.61,15.92-26.92-3.36-10.32-9.72-17.32-18.69-23.31-8.98-5.99-26.6-5.51-36.2-.74-9.61,4.76-13.08,13.66-18.03,23.97s8.32,22.9,16,26c-11.03-5.68-21.77,13.75-5,12-3.75,5.18,1.79,12.06,.77,16.77-1.01,4.71-3.97,11.59,3.22,13.22,7.2,1.64,7.86-5.31,12.01-7.99m30-39c-8.82,4.71-26.87,2.66-36,0-18.92-5.51-19.39-20.06-8.7-33.7,10.7-13.63,30.65-12.56,43.93-3.53s16.33,28.92,.77,37.23m-31,5c5.69,.12,19.85-1.25,25.22,1.78,5.38,3.03,3.42,16.97-.48,21.96-3.89,5-15.04,5.17-21.74,5.26s-17.25-4.53-14.22-12.22,1.48-16.98,11.22-16.78m-13,4c.89,4.74-3.11,3.07-6,3,.98-2.5,3.46-3.45,6-3m52,8c-2.3,2.62-7.53-.3-6-4,2.14,1.1,4.49,2.29,6,4m-43,20c-.27,3.68-4.72,5.4-8,5-1.72-6.48,3.69-6.08,8-5m30,7c-4.12,1.08-3.71-6.37-3-8,2.7,1.47,2.91,5.15,3,8"/><path class="l" d="M43.75,63.51c9.7,1.8,26.61,3.42,36,0,15.56-8.31,12.51-28.2-.77-37.23s-33.23-10.1-43.93,3.53c-10.69,13.64-10.22,28.19,8.7,33.7m0-22c2.93,1.66-.5,6.93-3.67,4.67-3.18-2.27,.65-6.38,3.67-4.67m36,2c0,8.9-9.74-1.32,0,0Z"/><path class="h" d="M43.75,41.51c-3.02-1.71-6.85,2.4-3.67,4.67,3.17,2.26,6.6-3.01,3.67-4.67Z"/><path class="f" d="M79.75,63.51c-9.39,3.42-26.3,1.8-36,0,9.13,2.66,27.18,4.71,36,0Z"/><path class="i" d="M48.75,68.51c-9.74-.2-8.19,9.09-11.22,16.78s7.52,12.31,14.22,12.22,17.85-.26,21.74-5.26c3.9-4.99,5.86-18.93,.48-21.96-5.37-3.03-19.53-1.66-25.22-1.78Z"/><path class="d" d="M35.75,72.51c-2.54-.45-5.02,.5-6,3,2.89,.07,6.89,1.74,6-3Z"/><path class="k" d="M87.75,80.51c-1.51-1.71-3.86-2.9-6-4-1.53,3.7,3.7,6.62,6,4Z"/><path class="c" d="M44.75,100.51c-4.31-1.08-9.72-1.48-8,5,3.28,.4,7.73-1.32,8-5Z"/><path class="e" d="M74.75,107.51c-.09-2.85-.3-6.53-3-8-.71,1.63-1.12,9.08,3,8Z"/><path class="g" d="M49.75,102.51c4.02-1.76,11.23,.29,14,2v-3c-4.44,.7-10.34-1.36-14,1Z"/><path class="n" d="M73.75,113.51c10.68-4.6-.51-19.65,7-28,5.81,4.16,14.73-1.01,10.92-6.92-3.82-5.91-6.89-5.58-11.92-9.08,9.05-3.65,19.29-16.61,15.92-26.92-3.36-10.32-9.72-17.32-18.69-23.31-8.98-5.99-26.6-5.51-36.2-.74-9.61,4.76-13.08,13.66-18.03,23.97s8.32,22.9,16,26c-11.03-5.68-21.77,13.75-5,12-3.75,5.18,1.79,12.06,.77,16.77-1.01,4.71-3.97,11.59,3.22,13.22,7.2,1.64,7.86-5.31,12.01-7.99m0,0c3.66-2.36,9.56-.3,14-1v3c3.28,2.03,4.56,3.42,6.74,7.52m9.26-48.52c-8.82,4.71-26.87,2.66-36,0-18.92-5.51-19.39-20.06-8.7-33.7,10.7-13.63,30.65-12.56,43.93-3.53s16.33,28.92,.77,37.23m-31,5c5.69,.12,19.85-1.25,25.22,1.78,5.38,3.03,3.42,16.97-.48,21.96-3.89,5-15.04,5.17-21.74,5.26s-17.25-4.53-14.22-12.22,1.48-16.98,11.22-16.78m-13,4c.89,4.74-3.11,3.07-6,3,.98-2.5,3.46-3.45,6-3m52,8c-2.3,2.62-7.53-.3-6-4,2.14,1.1,4.49,2.29,6,4m-43,20c-.27,3.68-4.72,5.4-8,5-1.72-6.48,3.69-6.08,8-5m30,7c-4.12,1.08-3.71-6.37-3-8,2.7,1.47,2.91,5.15,3,8"/><path class="b" d="M43.75,63.51c9.7,1.8,26.61,3.42,36,0,15.56-8.31,12.51-28.2-.77-37.23s-33.23-10.1-43.93,3.53c-10.69,13.64-10.22,28.19,8.7,33.7m0-22c2.93,1.66-.5,6.93-3.67,4.67-3.18-2.27,.65-6.38,3.67-4.67m36,2c0,8.9-9.74-1.32,0,0Z"/><path class="m" d="M43.75,41.51c-3.02-1.71-6.85,2.4-3.67,4.67,3.17,2.26,6.6-3.01,3.67-4.67Z"/><path class="u" d="M79.75,63.51c-9.39,3.42-26.3,1.8-36,0,9.13,2.66,27.18,4.71,36,0Z"/><path class="t" d="M48.75,68.51c-9.74-.2-8.19,9.09-11.22,16.78s7.52,12.31,14.22,12.22,17.85-.26,21.74-5.26c3.9-4.99,5.86-18.93,.48-21.96-5.37-3.03-19.53-1.66-25.22-1.78Z"/><path class="p" d="M35.75,72.51c-2.54-.45-5.02,.5-6,3,2.89,.07,6.89,1.74,6-3Z"/><path class="s" d="M87.75,80.51c-1.51-1.71-3.86-2.9-6-4-1.53,3.7,3.7,6.62,6,4Z"/><path class="o" d="M44.75,100.51c-4.31-1.08-9.72-1.48-8,5,3.28,.4,7.73-1.32,8-5Z"/><path class="r" d="M74.75,107.51c-.09-2.85-.3-6.53-3-8-.71,1.63-1.12,9.08,3,8Z"/><path class="q" d="M49.75,102.51c4.02-1.76,11.23,.29,14,2v-3c-4.44,.7-10.34-1.36-14,1Z"/></svg>