<?xml version="1.0" encoding="UTF-8"?><svg id="a" xmlns="http://www.w3.org/2000/svg" viewBox="0 0 125.59 125.59"><defs><style>.b{stroke:#743e10;}.b,.c,.d,.e,.f,.g,.h,.i,.j{fill:none;stroke-width:.3px;}.k{fill:#673401;}.c{stroke:#763e0c;}.l{fill:#f2f1ef;}.d{stroke:#6f3805;}.m{fill:#743e10;}.e{stroke:#f7f6f5;}.n{fill:#743d0c;}.f{stroke:#070707;}.g{stroke:#673401;}.o{fill:#6f3805;}.h{stroke:#f2f1ef;}.p{fill:#f7f6f5;}.i{stroke:#743d0c;}.q{fill:#070707;}.r{fill:#6d3a0b;}.j{stroke:#6d3a0b;}.s{fill:#763e0c;}</style></defs><path class="f" d="M100.79,51.75c11.83,13.49,20.88-2.22,18-13-2.89-10.78-4.69-23.4-17.78-24.22-13.08-.82-20.69-.28-33.21-4.79-12.52-4.51-24.04,4.31-36.01,4.01S11.91,21.3,7.72,31.68c-4.2,10.38,2.64,26.86,16.07,24.07,1.88,10.1,11.37,14.17,20,17-3.88,7.62-6.98,15.27-9.67,23.33-2.69,8.06,7.57,17.13,15.67,15.67s23,1.37,30.77-1.23c7.77-2.6,12.68-7.92,17.97-14.03,5.3-6.1-2.37-21.67-9.74-9.74-1.3-5.39-5.14-9.94-7-15,9.13-3.11,16.68-10.54,19-20m-10-32c5.75-.96,11.61-1.65,16.7,2.3,5.08,3.95,4.66,10.78,6.29,15.71,1.64,4.93,2.02,15.18-4.24,14.19-6.26-1-9.53-7.86-7.75-14.2,1.78-6.34-6.62-10.12-9-13,2.76,13.07,8.34,32.7-7.7,40.3-16.03,7.61-30.75,6.31-46.53-.07-15.77-6.39-11.04-27.72-5.77-40.23-10.81,1.53-9.02,17.33-10,26-14.56,.53-14.62-18.81-4.75-26.75s22.43-5.08,34.42-9.58c11.99-4.49,27.19,6.07,38.33,5.33m-7,68c1.57,4.21,5.12,14.48-2,16,2.55-12.52-4.25-4.97-8,0-.18-11.24-9.27-7.29-5,2-3.94-.68-7.21,1.03-11,1,4.58-9.63-5.1-12.83-5-2-1.88-1.25-.3-4.36-2-6-4.37-7.44-6.06,3.15-4,7-13.1,.31-5.99-14.74-3-21,5.14-12.93,13.31-10.27,27-10,9.23,.18,10.08,5.18,13,13m7,9c-.73-3.15,.57-5.57,3-7,2.53,1.97,.4,7.31-3,7Z"/><path class="e" d="M92.79,24.75c-.39-1.83-.1-3.99-2-5-11.14,.74-26.34-9.82-38.33-5.33-11.99,4.5-24.55,1.64-34.42,9.58s-9.81,27.28,4.75,26.75c.98-8.67-.81-24.47,10-26-5.27,12.51-10,33.84,5.77,40.23,15.78,6.38,30.5,7.68,46.53,.07,16.04-7.6,10.46-27.23,7.7-40.3m-33-5c12.51,2.91,3.85,26.32-8.22,21.22-12.07-5.1-4.76-24.24,8.22-21.22m30,19c9.43,3.84,.57,21.6-9.02,16.02-9.6-5.58-1.52-20.31,9.02-16.02m-54,9c-1.41-8.51,8.53,.45,0,0Z"/><path class="d" d="M90.79,19.75c1.9,1.01,1.61,3.17,2,5,2.38,2.88,10.78,6.66,9,13-1.78,6.34,1.49,13.2,7.75,14.2,6.26,.99,5.88-9.26,4.24-14.19-1.63-4.93-1.21-11.76-6.29-15.71-5.09-3.95-10.95-3.26-16.7-2.3Z"/><path class="c" d="M59.79,19.75c-12.98-3.02-20.29,16.12-8.22,21.22,12.07,5.1,20.73-18.31,8.22-21.22Z"/><path class="b" d="M89.79,38.75c-10.54-4.29-18.62,10.44-9.02,16.02,9.59,5.58,18.45-12.18,9.02-16.02m-7,5c8.07-.55-.49,8.11,0,0Z"/><path class="h" d="M43.79,84.75c7.93-3.56,6.62,10.79,7,14,1.7,1.64,.12,4.75,2,6-.1-10.83,9.58-7.63,5,2,3.79,.03,7.06-1.68,11-1-4.27-9.29,4.82-13.24,5-2,3.75-4.97,10.55-12.52,8,0,7.12-1.52,3.57-11.79,2-16-1.28,5.72-10.16,3.74-13.25,1.25-3.08-2.5-3.74-12.1,.25-14.25-13.69-.27-21.86-2.93-27,10Z"/><path class="i" d="M83.79,87.75c-2.92-7.82-3.77-12.82-13-13-3.99,2.15-3.33,11.75-.25,14.25,3.09,2.49,11.97,4.47,13.25-1.25Z"/><path class="j" d="M50.79,98.75c-.38-3.21,.93-17.56-7-14-2.99,6.26-10.1,21.31,3,21-2.06-3.85-.37-14.44,4-7Z"/><path class="g" d="M90.79,96.75c3.4,.31,5.53-5.03,3-7-2.43,1.43-3.73,3.85-3,7Z"/><path class="q" d="M100.79,51.75c11.83,13.49,20.88-2.22,18-13-2.89-10.78-4.69-23.4-17.78-24.22-13.08-.82-20.69-.28-33.21-4.79-12.52-4.51-24.04,4.31-36.01,4.01S11.91,21.3,7.72,31.68c-4.2,10.38,2.64,26.86,16.07,24.07,1.88,10.1,11.37,14.17,20,17-3.88,7.62-6.98,15.27-9.67,23.33-2.69,8.06,7.57,17.13,15.67,15.67s23,1.37,30.77-1.23c7.77-2.6,12.68-7.92,17.97-14.03,5.3-6.1-2.37-21.67-9.74-9.74-1.3-5.39-5.14-9.94-7-15,9.13-3.11,16.68-10.54,19-20m-10-32c5.75-.96,11.61-1.65,16.7,2.3,5.08,3.95,4.66,10.78,6.29,15.71,1.64,4.93,2.02,15.18-4.24,14.19-6.26-1-9.53-7.86-7.75-14.2,1.78-6.34-6.62-10.12-9-13,2.76,13.07,8.34,32.7-7.7,40.3-16.03,7.61-30.75,6.31-46.53-.07-15.77-6.39-11.04-27.72-5.77-40.23-10.81,1.53-9.02,17.33-10,26-14.56,.53-14.62-18.81-4.75-26.75s22.43-5.08,34.42-9.58c11.99-4.49,27.19,6.07,38.33,5.33m-7,68c1.57,4.21,5.12,14.48-2,16,2.55-12.52-4.25-4.97-8,0-.18-11.24-9.27-7.29-5,2-3.94-.68-7.21,1.03-11,1,4.58-9.63-5.1-12.83-5-2-1.88-1.25-.3-4.36-2-6-4.37-7.44-6.06,3.15-4,7-13.1,.31-5.99-14.74-3-21,5.14-12.93,13.31-10.27,27-10,9.23,.18,10.08,5.18,13,13m7,9c-.73-3.15,.57-5.57,3-7,2.53,1.97,.4,7.31-3,7Z"/><path class="p" d="M92.79,24.75c-.39-1.83-.1-3.99-2-5-11.14,.74-26.34-9.82-38.33-5.33-11.99,4.5-24.55,1.64-34.42,9.58s-9.81,27.28,4.75,26.75c.98-8.67-.81-24.47,10-26-5.27,12.51-10,33.84,5.77,40.23,15.78,6.38,30.5,7.68,46.53,.07,16.04-7.6,10.46-27.23,7.7-40.3m-33-5c12.51,2.91,3.85,26.32-8.22,21.22-12.07-5.1-4.76-24.24,8.22-21.22m30,19c9.43,3.84,.57,21.6-9.02,16.02-9.6-5.58-1.52-20.31,9.02-16.02m-54,9c-1.41-8.51,8.53,.45,0,0Z"/><path class="o" d="M90.79,19.75c1.9,1.01,1.61,3.17,2,5,2.38,2.88,10.78,6.66,9,13-1.78,6.34,1.49,13.2,7.75,14.2,6.26,.99,5.88-9.26,4.24-14.19-1.63-4.93-1.21-11.76-6.29-15.71-5.09-3.95-10.95-3.26-16.7-2.3Z"/><path class="s" d="M59.79,19.75c-12.98-3.02-20.29,16.12-8.22,21.22,12.07,5.1,20.73-18.31,8.22-21.22Z"/><path class="m" d="M89.79,38.75c-10.54-4.29-18.62,10.44-9.02,16.02,9.59,5.58,18.45-12.18,9.02-16.02m-7,5c8.07-.55-.49,8.11,0,0Z"/><path class="l" d="M43.79,84.75c7.93-3.56,6.62,10.79,7,14,1.7,1.64,.12,4.75,2,6-.1-10.83,9.58-7.63,5,2,3.79,.03,7.06-1.68,11-1-4.27-9.29,4.82-13.24,5-2,3.75-4.97,10.55-12.52,8,0,7.12-1.52,3.57-11.79,2-16-1.28,5.72-10.16,3.74-13.25,1.25-3.08-2.5-3.74-12.1,.25-14.25-13.69-.27-21.86-2.93-27,10Z"/><path class="n" d="M83.79,87.75c-2.92-7.82-3.77-12.82-13-13-3.99,2.15-3.33,11.75-.25,14.25,3.09,2.49,11.97,4.47,13.25-1.25Z"/><path class="r" d="M50.79,98.75c-.38-3.21,.93-17.56-7-14-2.99,6.26-10.1,21.31,3,21-2.06-3.85-.37-14.44,4-7Z"/><path class="k" d="M90.79,96.75c3.4,.31,5.53-5.03,3-7-2.43,1.43-3.73,3.85-3,7Z"/></svg>