<?xml version="1.0" encoding="UTF-8"?><svg id="a" xmlns="http://www.w3.org/2000/svg" viewBox="0 0 125.59 125.59"><defs><style>.b{stroke:#0c0908;}.b,.c,.d,.e,.f,.g,.h,.i,.j,.k,.l,.m{fill:none;stroke-width:.3px;}.n{fill:#2a1807;}.c{stroke:#6f6f6f;}.d{stroke:#cf8204;}.e{stroke:#2a1807;}.o{fill:#160b05;}.p{fill:#0c0908;}.q{fill:#cf8204;}.f{stroke:#cc8005;}.g{stroke:#130a07;}.r{fill:#130a07;}.s{fill:#744505;}.h{stroke:#160b05;}.i{stroke:#664017;}.t{fill:#6f6f6f;}.u{fill:#120a06;}.j{stroke:#633a02;}.k{stroke:#744505;}.v{fill:#633a02;}.w{fill:#cc8005;}.x{fill:#b9bebb;}.l{stroke:#b9bebb;}.m{stroke:#120a06;}.y{fill:#664017;}</style></defs><path class="b" d="M66.19,34.86c-4.29-.44-11.78,1.62-15-1-3.15-11.64-7.92-15.19-16.75-24.25C25.6,.55,12.37,5.55,16.26,18.79c3.9,13.24,6.21,16.65,12.93,27.07-10.89,10-6.11,30.55,9,34-1.06,10.1-7.63,17.4-6.99,27.99,.63,10.59,12.08,13.83,20.99,14.01,6.18,.12,12.86,.63,19,0,12.19,1.02,16.48-9.28,15.32-18.32-1.16-9.05-10.43-18.99-4.57-24.93,5.87-5.94,11.79-16.09,9.23-25.73-2.56-9.64,5.29-14.58,9.1-22.94,3.8-8.37,8.63-17.49,.67-25.83-7.97-8.33-15.18-1.44-19.98,6.52-4.79,7.96-7.03,16.88-7.77,26.23-2.17-1.36-4.61-1.47-7-2m-14,5c4.69-.1,10.16-1.53,15,0,9.7,3.07,10.96,3.48,11.33-6.67,.37-10.15,2.89-12.42,6.42-19.58,3.54-7.15,9.64-11.57,14.02-4.52,4.38,7.06-.71,14.09-3.69,19.85-2.99,5.75-5.77,11.94-11.08,15.92,1.67,8.31,3.96,17.39-.77,25.23-4.74,7.84-13.58,8.78-22.23,8.77s-17.78-1-24.75-5.25c-6.96-4.26-12.75-13.28-6.32-20.82,6.42-7.55,3.04-11.96-2.18-17.68-5.22-5.72-8.9-16.14-7.75-23.25,1.16-7.11,14.14,2.44,17.25,6.75s9.77,14.88,9.75,21.25h5m-2,43c6.29,.43,20.27-2.7,25,1,3.59,2.8,2.48,9.2,4.78,13.22,2.3,4.03,2.01,11.98,2.22,16.78-12.53,3.76-26.43,7.32-39.68,1.68-13.25-5.65-.91-24.09-.32-33.68,2.91-.59,5.06,1.59,8,1Z"/><path class="d" d="M67.19,39.86c-4.8-.86-10.13,.37-15,0h-5c.02-6.37-6.64-16.94-9.75-21.25S21.35,4.75,20.19,11.86c-1.15,7.11,2.53,17.53,7.75,23.25,5.22,5.72,8.6,10.13,2.18,17.68-6.43,7.54-.64,16.56,6.32,20.82,6.97,4.25,16.1,5.24,24.75,5.25s17.49-.93,22.23-8.77c4.73-7.84,2.44-16.92,.77-25.23,5.31-3.98,8.09-10.17,11.08-15.92,2.98-5.76,8.07-12.79,3.69-19.85-4.38-7.05-10.48-2.63-14.02,4.52-3.53,7.16-6.05,9.43-6.42,19.58-.37,10.15-1.63,9.74-11.33,6.67m-28,18c2.03,.92,.88,5.74-1.7,4.64-2.58-1.1-.69-5.73,1.7-4.64m36,4c.17,.43,0,1,0,1-4.32,10.96-4.32-11.95,0-1Z"/><path class="l" d="M66.19,34.86c-3.09-.69-12.1,.64-15-1,3.22,2.62,10.71,.56,15,1Z"/><path class="i" d="M52.19,39.86c4.87,.37,10.2-.86,15,0-4.84-1.53-10.31-.1-15,0Z"/><path class="e" d="M39.19,57.86c-2.39-1.09-4.28,3.54-1.7,4.64,2.58,1.1,3.73-3.72,1.7-4.64Z"/><path class="k" d="M75.19,62.86c-1.11,.97-2.58,1.05-4,1-1.04-3.09,2.19-3.56,4-2-4.32-10.95-4.32,11.96,0,1Z"/><path class="h" d="M75.19,62.86s.17-.57,0-1c-1.81-1.56-5.04-1.09-4,2,1.42,.05,2.89-.03,4-1Z"/><path class="f" d="M75.19,83.86c-3.05-1.65-9.36,.3-13,0s-8.87-.44-12-1c-2.94,.59-5.09-1.59-8-1-.59,9.59-12.93,28.03,.32,33.68,13.25,5.64,27.15,2.08,39.68-1.68-.21-4.8,.08-12.75-2.22-16.78-2.3-4.02-1.19-10.42-4.78-13.22m-20,7c1.14,6.01-2.25,14.39-9.23,9.23-6.98-5.17-.51-9.88,4.23-3.23-.91-3.51,.89-7.19,5-6m11,0c-1.14,6.66,1.2,4.8,6,4-.29,16.16-20.99-1.38-6-4Z"/><path class="j" d="M75.19,83.86c-4.73-3.7-18.71-.57-25-1,3.13,.56,8.36,.7,12,1s9.95-1.65,13,0Z"/><path class="m" d="M55.19,90.86c-4.11-1.19-5.91,2.49-5,6-4.74-6.65-11.21-1.94-4.23,3.23,6.98,5.16,10.37-3.22,9.23-9.23Z"/><path class="g" d="M66.19,90.86c-14.99,2.62,5.71,20.16,6,4-4.8,.8-7.14,2.66-6-4Z"/><path class="c" d="M71.19,121.86c-6.14,.63-12.82,.12-19,0,5.9,.71,12.99,1.33,19,0Z"/><path class="p" d="M66.19,34.86c-4.29-.44-11.78,1.62-15-1-3.15-11.64-7.92-15.19-16.75-24.25C25.6,.55,12.37,5.55,16.26,18.79c3.9,13.24,6.21,16.65,12.93,27.07-10.89,10-6.11,30.55,9,34-1.06,10.1-7.63,17.4-6.99,27.99,.63,10.59,12.08,13.83,20.99,14.01,6.18,.12,12.86,.63,19,0,12.19,1.02,16.48-9.28,15.32-18.32-1.16-9.05-10.43-18.99-4.57-24.93,5.87-5.94,11.79-16.09,9.23-25.73-2.56-9.64,5.29-14.58,9.1-22.94,3.8-8.37,8.63-17.49,.67-25.83-7.97-8.33-15.18-1.44-19.98,6.52-4.79,7.96-7.03,16.88-7.77,26.23-2.17-1.36-4.61-1.47-7-2m-14,5c4.69-.1,10.16-1.53,15,0,9.7,3.07,10.96,3.48,11.33-6.67,.37-10.15,2.89-12.42,6.42-19.58,3.54-7.15,9.64-11.57,14.02-4.52,4.38,7.06-.71,14.09-3.69,19.85-2.99,5.75-5.77,11.94-11.08,15.92,1.67,8.31,3.96,17.39-.77,25.23-4.74,7.84-13.58,8.78-22.23,8.77s-17.78-1-24.75-5.25c-6.96-4.26-12.75-13.28-6.32-20.82,6.42-7.55,3.04-11.96-2.18-17.68-5.22-5.72-8.9-16.14-7.75-23.25,1.16-7.11,14.14,2.44,17.25,6.75s9.77,14.88,9.75,21.25h5m-2,43c6.29,.43,20.27-2.7,25,1,3.59,2.8,2.48,9.2,4.78,13.22,2.3,4.03,2.01,11.98,2.22,16.78-12.53,3.76-26.43,7.32-39.68,1.68-13.25-5.65-.91-24.09-.32-33.68,2.91-.59,5.06,1.59,8,1Z"/><path class="q" d="M67.19,39.86c-4.8-.86-10.13,.37-15,0h-5c.02-6.37-6.64-16.94-9.75-21.25S21.35,4.75,20.19,11.86c-1.15,7.11,2.53,17.53,7.75,23.25,5.22,5.72,8.6,10.13,2.18,17.68-6.43,7.54-.64,16.56,6.32,20.82,6.97,4.25,16.1,5.24,24.75,5.25s17.49-.93,22.23-8.77c4.73-7.84,2.44-16.92,.77-25.23,5.31-3.98,8.09-10.17,11.08-15.92,2.98-5.76,8.07-12.79,3.69-19.85-4.38-7.05-10.48-2.63-14.02,4.52-3.53,7.16-6.05,9.43-6.42,19.58-.37,10.15-1.63,9.74-11.33,6.67m-28,18c2.03,.92,.88,5.74-1.7,4.64-2.58-1.1-.69-5.73,1.7-4.64m36,4c.17,.43,0,1,0,1-4.32,10.96-4.32-11.95,0-1Z"/><path class="x" d="M66.19,34.86c-3.09-.69-12.1,.64-15-1,3.22,2.62,10.71,.56,15,1Z"/><path class="y" d="M52.19,39.86c4.87,.37,10.2-.86,15,0-4.84-1.53-10.31-.1-15,0Z"/><path class="n" d="M39.19,57.86c-2.39-1.09-4.28,3.54-1.7,4.64,2.58,1.1,3.73-3.72,1.7-4.64Z"/><path class="s" d="M75.19,62.86c-1.11,.97-2.58,1.05-4,1-1.04-3.09,2.19-3.56,4-2-4.32-10.95-4.32,11.96,0,1Z"/><path class="o" d="M75.19,62.86s.17-.57,0-1c-1.81-1.56-5.04-1.09-4,2,1.42,.05,2.89-.03,4-1Z"/><path class="w" d="M75.19,83.86c-3.05-1.65-9.36,.3-13,0s-8.87-.44-12-1c-2.94,.59-5.09-1.59-8-1-.59,9.59-12.93,28.03,.32,33.68,13.25,5.64,27.15,2.08,39.68-1.68-.21-4.8,.08-12.75-2.22-16.78-2.3-4.02-1.19-10.42-4.78-13.22m-20,7c1.14,6.01-2.25,14.39-9.23,9.23-6.98-5.17-.51-9.88,4.23-3.23-.91-3.51,.89-7.19,5-6m11,0c-1.14,6.66,1.2,4.8,6,4-.29,16.16-20.99-1.38-6-4Z"/><path class="v" d="M75.19,83.86c-4.73-3.7-18.71-.57-25-1,3.13,.56,8.36,.7,12,1s9.95-1.65,13,0Z"/><path class="u" d="M55.19,90.86c-4.11-1.19-5.91,2.49-5,6-4.74-6.65-11.21-1.94-4.23,3.23,6.98,5.16,10.37-3.22,9.23-9.23Z"/><path class="r" d="M66.19,90.86c-14.99,2.62,5.71,20.16,6,4-4.8,.8-7.14,2.66-6-4Z"/><path class="t" d="M71.19,121.86c-6.14,.63-12.82,.12-19,0,5.9,.71,12.99,1.33,19,0Z"/></svg>