<?xml version="1.0" encoding="UTF-8"?><svg id="a" xmlns="http://www.w3.org/2000/svg" viewBox="0 0 125.59 125.59"><defs><style>.b{stroke:#110705;}.b,.c,.d,.e,.f,.g,.h,.i,.j,.k,.l,.m,.n,.o,.p,.q{fill:none;stroke-width:.3px;}.c{stroke:#d8b67b;}.d{stroke:#6d5840;}.r{fill:#864b03;}.s{fill:#110705;}.e{stroke:#140602;}.t{fill:#0f0404;}.f{stroke:#d8b77b;}.g{stroke:#321200;}.u{fill:#6d5840;}.v{fill:#0a0405;}.w{fill:#874b02;}.h{stroke:#676767;}.i{stroke:#874b02;}.x{fill:#270b00;}.y{fill:#d4b379;}.j{stroke:#090707;}.a`{fill:#676767;}.aa{fill:#321200;}.k{stroke:#522d03;}.ab{fill:#d8b67b;}.ac{fill:#d8b77b;}.l{stroke:#864b03;}.m{stroke:#73684c;}.n{stroke:#270b00;}.o{stroke:#d4b379;}.ad{fill:#73684c;}.p{stroke:#0a0405;}.ae{fill:#090707;}.q{stroke:#0f0404;}.af{fill:#522d03;}.ag{fill:#140602;}</style></defs><path class="j" d="M54.5,114.46c2.9,.16,6.11,.26,9,0,7.65-.05,13.24-6.07,20.93-5.93,7.68,.15,12.28,7.5,20.32,5.18,8.03-2.32,8.57-12.9,.5-6.5-8.06,6.4-11.1-4.63-19.75-2.75,1.47-8.12,2.67-25.56,16-22,13.32,3.55,8.58-26.4,5.33-13.67-3.26,12.72-15.32,5.39-20.33,16.67-7.98-12.77,2.83-24.49,5-36,12.1,1.9,21.84-6.12,20.99-17.99-.85-11.87-16.28-14.97-24.99-7.01-12.13-17.62-40.8-10.64-55,1-1.32-6.46-10.71-8.17-15.25-4.25-4.53,3.92-7.04,7.81-8.42,13.58-1.38,5.76,3.92,9.93,7.92,13.42,4.01,3.48,14.68,.03,16.42,5.58,1.75,5.55,3.32,10.74,9.33,12.67-5.01,11.56-12.32,25.3-5,38-6.01-5.09-19.69,8.84-21-3-1.31-11.83-7.36-2.24-3.32,5.32,4.04,7.57,13.61,2.46,21.32,2.68s12.65,4.6,20,5M70.5,19.46c6.34,.5,12.57,4.74,14.77,10.23,2.2,5.49,4.89,17.33-.07,20.47-4.96,3.13-13.87-3.24-19.7-3.7-3.92-.31-8.06-.08-12,0-5.38,.11-15.4,5.55-18.25,.25-2.85-5.29-.68-14.6,3.5-19,4.17-4.4,10.64-6.83,16.75-8.25,4.85-1.13,10.24-.92,15,0m-40,15c.49,3.94-.37,8.05,0,12-2.52-.56-6.3,1.19-8-1-7.35-2.48-11.68-8.52-6.23-16.23,5.45-7.71,13.02-4.53,14.23,5.23m61-7c4.2-4.62,15.49-3.58,15.97,3.03,.49,6.6-.29,12.42-8.98,13.96-8.69,1.54-6.8-11.39-6.99-16.99m-26,40c-3.17,.45-5.81,.71-9,0-6.89-1.53-15.29-4.64-18-12,5.95-3.31,17.04-6.44,23.67-4.67,6.63,1.77,18.58-.28,22.08,6.92,3.49,7.21-14.87,9.89-18.75,9.75m13,3c.4,10.67,7.78,28.99-3.03,34.97-10.81,5.99-23.87,8.47-32.67-1.27-8.79-9.74-1.17-24.61,3.7-33.7,10.29,3.34,21.6,1.9,32,0Z"/><path class="g" d="M55.5,19.46c4.69-.52,10.29-.37,15,0-4.76-.92-10.15-1.13-15,0Z"/><path class="i" d="M53.5,46.46c3.98-.48,8.02-.77,12,0,5.83,.46,14.74,6.83,19.7,3.7,4.96-3.14,2.27-14.98,.07-20.47-2.2-5.49-8.43-9.73-14.77-10.23-4.71-.37-10.31-.52-15,0-6.11,1.42-12.58,3.85-16.75,8.25-4.18,4.4-6.35,13.71-3.5,19,2.85,5.3,12.87-.14,18.25-.25m-11-7c-.24-.33-.11-1.52,0-2,2.5-11.04,6.48,11.22,0,2m37-2c1.52,1.53-1.94,4.61-3.67,2.67-1.74-1.95,2.43-3.91,3.67-2.67Z"/><path class="c" d="M22.5,45.46c2.26,.4,4.72-.3,7,0,.62-3.5-1.27-8.32,1-11-1.21-9.76-8.78-12.94-14.23-5.23-5.45,7.71-1.12,13.75,6.23,16.23Z"/><path class="o" d="M91.5,27.46c.19,5.6-1.7,18.53,6.99,16.99,8.69-1.54,9.47-7.36,8.98-13.96-.48-6.61-11.77-7.65-15.97-3.03Z"/><path class="m" d="M22.5,45.46c1.7,2.19,5.48,.44,8,1-.37-3.95,.49-8.06,0-12-2.27,2.68-.38,7.5-1,11-2.28-.3-4.74,.4-7,0Z"/><path class="k" d="M42.5,37.46c.92-1.11,2.73-.93,4-1,.98,2.91-1.85,3.31-4,3,6.48,9.22,2.5-13.04,0-2Z"/><path class="q" d="M42.5,37.46c-.11,.48-.24,1.67,0,2,2.15,.31,4.98-.09,4-3-1.27,.07-3.08-.11-4,1Z"/><path class="e" d="M79.5,37.46c-1.24-1.24-5.41,.72-3.67,2.67,1.73,1.94,5.19-1.14,3.67-2.67Z"/><path class="n" d="M53.5,46.46c3.94-.08,8.08-.31,12,0-3.98-.77-8.02-.48-12,0Z"/><path class="f" d="M56.5,67.46c2.89,.3,6.1,.11,9,0,3.88,.14,22.24-2.54,18.75-9.75-3.5-7.2-15.45-5.15-22.08-6.92-6.63-1.77-17.72,1.36-23.67,4.67,2.71,7.36,11.11,10.47,18,12Z"/><path class="d" d="M65.5,67.46c-2.9,.11-6.11,.3-9,0,3.19,.71,5.83,.45,9,0Z"/><path class="l" d="M78.5,70.46c-10.4,1.9-21.71,3.34-32,0-4.87,9.09-12.49,23.96-3.7,33.7,8.8,9.74,21.86,7.26,32.67,1.27,10.81-5.98,3.43-24.3,3.03-34.97m-13,23c.96-2.95,4.17-16.03,7.74-11.74,3.57,4.29-3.19,16.04-7.74,11.74m-9,0c-5.15,.11-9.73-6.46-11-11,5.2-.12,11.15,5.79,11,11Z"/><path class="b" d="M65.5,93.46c4.55,4.3,11.31-7.45,7.74-11.74-3.57-4.29-6.78,8.79-7.74,11.74Z"/><path class="p" d="M56.5,93.46c.15-5.21-5.8-11.12-11-11,1.27,4.54,5.85,11.11,11,11Z"/><path class="h" d="M63.5,114.46c-2.89,.26-6.1,.16-9,0,3.13,.51,5.77,.67,9,0Z"/><path class="ae" d="M54.5,114.46c2.9,.16,6.11,.26,9,0,7.65-.05,13.24-6.07,20.93-5.93,7.68,.15,12.28,7.5,20.32,5.18,8.03-2.32,8.57-12.9,.5-6.5-8.06,6.4-11.1-4.63-19.75-2.75,1.47-8.12,2.67-25.56,16-22,13.32,3.55,8.58-26.4,5.33-13.67-3.26,12.72-15.32,5.39-20.33,16.67-7.98-12.77,2.83-24.49,5-36,12.1,1.9,21.84-6.12,20.99-17.99-.85-11.87-16.28-14.97-24.99-7.01-12.13-17.62-40.8-10.64-55,1-1.32-6.46-10.71-8.17-15.25-4.25-4.53,3.92-7.04,7.81-8.42,13.58-1.38,5.76,3.92,9.93,7.92,13.42,4.01,3.48,14.68,.03,16.42,5.58,1.75,5.55,3.32,10.74,9.33,12.67-5.01,11.56-12.32,25.3-5,38-6.01-5.09-19.69,8.84-21-3-1.31-11.83-7.36-2.24-3.32,5.32,4.04,7.57,13.61,2.46,21.32,2.68s12.65,4.6,20,5M70.5,19.46c6.34,.5,12.57,4.74,14.77,10.23,2.2,5.49,4.89,17.33-.07,20.47-4.96,3.13-13.87-3.24-19.7-3.7-3.92-.31-8.06-.08-12,0-5.38,.11-15.4,5.55-18.25,.25-2.85-5.29-.68-14.6,3.5-19,4.17-4.4,10.64-6.83,16.75-8.25,4.85-1.13,10.24-.92,15,0m-40,15c.49,3.94-.37,8.05,0,12-2.52-.56-6.3,1.19-8-1-7.35-2.48-11.68-8.52-6.23-16.23,5.45-7.71,13.02-4.53,14.23,5.23m61-7c4.2-4.62,15.49-3.58,15.97,3.03,.49,6.6-.29,12.42-8.98,13.96-8.69,1.54-6.8-11.39-6.99-16.99m-26,40c-3.17,.45-5.81,.71-9,0-6.89-1.53-15.29-4.64-18-12,5.95-3.31,17.04-6.44,23.67-4.67,6.63,1.77,18.58-.28,22.08,6.92,3.49,7.21-14.87,9.89-18.75,9.75m13,3c.4,10.67,7.78,28.99-3.03,34.97-10.81,5.99-23.87,8.47-32.67-1.27-8.79-9.74-1.17-24.61,3.7-33.7,10.29,3.34,21.6,1.9,32,0Z"/><path class="aa" d="M55.5,19.46c4.69-.52,10.29-.37,15,0-4.76-.92-10.15-1.13-15,0Z"/><path class="w" d="M53.5,46.46c3.98-.48,8.02-.77,12,0,5.83,.46,14.74,6.83,19.7,3.7,4.96-3.14,2.27-14.98,.07-20.47-2.2-5.49-8.43-9.73-14.77-10.23-4.71-.37-10.31-.52-15,0-6.11,1.42-12.58,3.85-16.75,8.25-4.18,4.4-6.35,13.71-3.5,19,2.85,5.3,12.87-.14,18.25-.25m-11-7c-.24-.33-.11-1.52,0-2,2.5-11.04,6.48,11.22,0,2m37-2c1.52,1.53-1.94,4.61-3.67,2.67-1.74-1.95,2.43-3.91,3.67-2.67Z"/><path class="ab" d="M22.5,45.46c2.26,.4,4.72-.3,7,0,.62-3.5-1.27-8.32,1-11-1.21-9.76-8.78-12.94-14.23-5.23-5.45,7.71-1.12,13.75,6.23,16.23Z"/><path class="y" d="M91.5,27.46c.19,5.6-1.7,18.53,6.99,16.99,8.69-1.54,9.47-7.36,8.98-13.96-.48-6.61-11.77-7.65-15.97-3.03Z"/><path class="ad" d="M22.5,45.46c1.7,2.19,5.48,.44,8,1-.37-3.95,.49-8.06,0-12-2.27,2.68-.38,7.5-1,11-2.28-.3-4.74,.4-7,0Z"/><path class="af" d="M42.5,37.46c.92-1.11,2.73-.93,4-1,.98,2.91-1.85,3.31-4,3,6.48,9.22,2.5-13.04,0-2Z"/><path class="t" d="M42.5,37.46c-.11,.48-.24,1.67,0,2,2.15,.31,4.98-.09,4-3-1.27,.07-3.08-.11-4,1Z"/><path class="ag" d="M79.5,37.46c-1.24-1.24-5.41,.72-3.67,2.67,1.73,1.94,5.19-1.14,3.67-2.67Z"/><path class="x" d="M53.5,46.46c3.94-.08,8.08-.31,12,0-3.98-.77-8.02-.48-12,0Z"/><path class="ac" d="M56.5,67.46c2.89,.3,6.1,.11,9,0,3.88,.14,22.24-2.54,18.75-9.75-3.5-7.2-15.45-5.15-22.08-6.92-6.63-1.77-17.72,1.36-23.67,4.67,2.71,7.36,11.11,10.47,18,12Z"/><path class="u" d="M65.5,67.46c-2.9,.11-6.11,.3-9,0,3.19,.71,5.83,.45,9,0Z"/><path class="r" d="M78.5,70.46c-10.4,1.9-21.71,3.34-32,0-4.87,9.09-12.49,23.96-3.7,33.7,8.8,9.74,21.86,7.26,32.67,1.27,10.81-5.98,3.43-24.3,3.03-34.97m-13,23c.96-2.95,4.17-16.03,7.74-11.74,3.57,4.29-3.19,16.04-7.74,11.74m-9,0c-5.15,.11-9.73-6.46-11-11,5.2-.12,11.15,5.79,11,11Z"/><path class="s" d="M65.5,93.46c4.55,4.3,11.31-7.45,7.74-11.74-3.57-4.29-6.78,8.79-7.74,11.74Z"/><path class="v" d="M56.5,93.46c.15-5.21-5.8-11.12-11-11,1.27,4.54,5.85,11.11,11,11Z"/><path class="a`" d="M63.5,114.46c-2.89,.26-6.1,.16-9,0,3.13,.51,5.77,.67,9,0Z"/></svg>