<?xml version="1.0" encoding="UTF-8"?><svg id="a" xmlns="http://www.w3.org/2000/svg" viewBox="0 0 125.59 125.59"><defs><style>.b{fill:#6a6a6a;}.c{fill:#737171;}.d{fill:#8d7344;}.e{stroke:#c5b497;}.e,.f,.g,.h,.i,.j,.k,.l,.m,.n,.o{fill:none;stroke-width:.3px;}.f{stroke:#0f0f04;}.p{fill:#868686;}.g{stroke:#5b4b32;}.h{stroke:#65675f;}.q{fill:#65675f;}.r{fill:#5b4b32;}.s{fill:#0f0f04;}.t{fill:#090807;}.i{stroke:#090807;}.j{stroke:#868686;}.k{stroke:#190c05;}.l{stroke:#655532;}.u{fill:#655532;}.m{stroke:#6a6a6a;}.v{fill:#190c05;}.n{stroke:#737171;}.o{stroke:#8d7344;}.w{fill:#c5b497;}</style></defs><path class="j" d="M47.81,16.94c4.12-.22,8.91-.51,13,0-4.29-1.06-8.7-.7-13,0Z"/><path class="i" d="M19.81,50.94c2.38,4.31,7.11,3.77,6,9-1.71,8.07-9.62,17.04-5.32,26.32,4.3,9.28,8.12,13.69,18.32,14.68s19.49,2,30,2c3.25,0,6.78,.4,10,0,13.97-3.46,24.69-10.71,25-26,.1-5.15-.99-10.18,2-14,5.55-4.37,10.15-12.24,5.25-19.25-4.9-7-10.12,4.89-15.02,6.48-4.91,1.58-19.5,2.11-13.15,9.69,6.35,7.57,2.54,15.2-6.08,15.08-2.33-5-1.5-10.79-3-16,18.68-13.71,6.34-37.21-13-42-4.09-.51-8.88-.22-13,0-14.9,.81-36.19,16.28-28,34m70,24c1.48-6.21,2.87-12.93-3-18,8.96,1.92,15.09-4.54,21-10,2.01,10.01-9.63,12.85-8.01,22.01s-1.13,18.08-8.74,23.24c-7.6,5.17-14.7,7.34-24.25,5.75s-20.89,.59-30-3c-9.77-1.82-10.96-9.82-12-18s11.65-16.98,4.74-23.74c-6.9-6.76-7.12-12.98-1.97-21.49,5.15-8.51,13.25-7.79,21.23-9.77,7.98-1.97,17.48,.46,23.25,5.75,5.76,5.3,10.1,16.45,3.49,22.99-6.6,6.55-6.56,12.71-4.75,22.27,1.82,9.55,13.85,8.66,19.01,1.99Z"/><path class="o" d="M36.81,94.94c-6.83-4.1-5.42-16.07-5-23s7.6-12.95,15-13c7.41-.05,12.48,5.25,17.75,10.25,5.28,4.99,1.11,17,10.26,17.74,9.15,.74,13.29-4.86,14.99-11.99-5.16,6.67-17.19,7.56-19.01-1.99-1.81-9.56-1.85-15.72,4.75-22.27,6.61-6.54,2.27-17.69-3.49-22.99-5.77-5.29-15.27-7.72-23.25-5.75-7.98,1.98-16.08,1.26-21.23,9.77-5.15,8.51-4.93,14.73,1.97,21.49,6.91,6.76-5.78,15.56-4.74,23.74s2.23,16.18,12,18m-2-56c.06,.01,0,1,0,1,2.27,2.81-1.11,5.21-3.74,2.74s1.45-6.09,3.74-3.74m33,1c.24,.33-.17,1.57,0,2,.81,2.03-3.24,3.35-4.74,.74-1.51-2.6,2.91-5.35,4.74-2.74Z"/><path class="l" d="M34.81,39.94c-.65,6.77-7.54-1.86,0-1-2.29-2.35-6.37,1.27-3.74,3.74s6.01,.07,3.74-2.74Z"/><path class="f" d="M34.81,39.94s.06-.99,0-1c-7.54-.86-.65,7.77,0,1Z"/><path class="g" d="M67.81,41.94c-1.49,2.04-4.97,.94-4-2h4c-1.83-2.61-6.25,.14-4.74,2.74,1.5,2.61,5.55,1.29,4.74-.74Z"/><path class="k" d="M67.81,41.94c-.17-.43,.24-1.67,0-2h-4c-.97,2.94,2.51,4.04,4,2Z"/><path class="e" d="M89.81,74.94c-1.7,7.13-5.84,12.73-14.99,11.99-9.15-.74-4.98-12.75-10.26-17.74-5.27-5-10.34-10.3-17.75-10.25-7.4,.05-14.58,6.07-15,13s-1.83,18.9,5,23c9.11,3.59,20.45,1.41,30,3s16.65-.58,24.25-5.75c7.61-5.16,10.36-14.08,8.74-23.24s10.02-12,8.01-22.01c-5.91,5.46-12.04,11.92-21,10,5.87,5.07,4.48,11.79,3,18Z"/><path class="n" d="M25.81,59.94c1.11-5.23-3.62-4.69-6-9,1.64,3.55,6.05,4.63,6,9Z"/><path class="m" d="M103.81,76.94c.4-3.29,.17-10.68,2-14-2.99,3.82-1.9,8.85-2,14Z"/><path class="h" d="M78.81,102.94c-3.22,.4-6.75,0-10,0,3.31,.32,6.49,.87,10,0Z"/><path class="p" d="M47.81,16.94c4.12-.22,8.91-.51,13,0-4.29-1.06-8.7-.7-13,0Z"/><path class="t" d="M19.81,50.94c2.38,4.31,7.11,3.77,6,9-1.71,8.07-9.62,17.04-5.32,26.32,4.3,9.28,8.12,13.69,18.32,14.68s19.49,2,30,2c3.25,0,6.78,.4,10,0,13.97-3.46,24.69-10.71,25-26,.1-5.15-.99-10.18,2-14,5.55-4.37,10.15-12.24,5.25-19.25-4.9-7-10.12,4.89-15.02,6.48-4.91,1.58-19.5,2.11-13.15,9.69,6.35,7.57,2.54,15.2-6.08,15.08-2.33-5-1.5-10.79-3-16,18.68-13.71,6.34-37.21-13-42-4.09-.51-8.88-.22-13,0-14.9,.81-36.19,16.28-28,34m70,24c1.48-6.21,2.87-12.93-3-18,8.96,1.92,15.09-4.54,21-10,2.01,10.01-9.63,12.85-8.01,22.01s-1.13,18.08-8.74,23.24c-7.6,5.17-14.7,7.34-24.25,5.75s-20.89,.59-30-3c-9.77-1.82-10.96-9.82-12-18s11.65-16.98,4.74-23.74c-6.9-6.76-7.12-12.98-1.97-21.49,5.15-8.51,13.25-7.79,21.23-9.77,7.98-1.97,17.48,.46,23.25,5.75,5.76,5.3,10.1,16.45,3.49,22.99-6.6,6.55-6.56,12.71-4.75,22.27,1.82,9.55,13.85,8.66,19.01,1.99Z"/><path class="d" d="M36.81,94.94c-6.83-4.1-5.42-16.07-5-23s7.6-12.95,15-13c7.41-.05,12.48,5.25,17.75,10.25,5.28,4.99,1.11,17,10.26,17.74,9.15,.74,13.29-4.86,14.99-11.99-5.16,6.67-17.19,7.56-19.01-1.99-1.81-9.56-1.85-15.72,4.75-22.27,6.61-6.54,2.27-17.69-3.49-22.99-5.77-5.29-15.27-7.72-23.25-5.75-7.98,1.98-16.08,1.26-21.23,9.77-5.15,8.51-4.93,14.73,1.97,21.49,6.91,6.76-5.78,15.56-4.74,23.74s2.23,16.18,12,18m-2-56c.06,.01,0,1,0,1,2.27,2.81-1.11,5.21-3.74,2.74s1.45-6.09,3.74-3.74m33,1c.24,.33-.17,1.57,0,2,.81,2.03-3.24,3.35-4.74,.74-1.51-2.6,2.91-5.35,4.74-2.74Z"/><path class="u" d="M34.81,39.94c-.65,6.77-7.54-1.86,0-1-2.29-2.35-6.37,1.27-3.74,3.74s6.01,.07,3.74-2.74Z"/><path class="s" d="M34.81,39.94s.06-.99,0-1c-7.54-.86-.65,7.77,0,1Z"/><path class="r" d="M67.81,41.94c-1.49,2.04-4.97,.94-4-2h4c-1.83-2.61-6.25,.14-4.74,2.74,1.5,2.61,5.55,1.29,4.74-.74Z"/><path class="v" d="M67.81,41.94c-.17-.43,.24-1.67,0-2h-4c-.97,2.94,2.51,4.04,4,2Z"/><path class="w" d="M89.81,74.94c-1.7,7.13-5.84,12.73-14.99,11.99-9.15-.74-4.98-12.75-10.26-17.74-5.27-5-10.34-10.3-17.75-10.25-7.4,.05-14.58,6.07-15,13s-1.83,18.9,5,23c9.11,3.59,20.45,1.41,30,3s16.65-.58,24.25-5.75c7.61-5.16,10.36-14.08,8.74-23.24s10.02-12,8.01-22.01c-5.91,5.46-12.04,11.92-21,10,5.87,5.07,4.48,11.79,3,18Z"/><path class="c" d="M25.81,59.94c1.11-5.23-3.62-4.69-6-9,1.64,3.55,6.05,4.63,6,9Z"/><path class="b" d="M103.81,76.94c.4-3.29,.17-10.68,2-14-2.99,3.82-1.9,8.85-2,14Z"/><path class="q" d="M78.81,102.94c-3.22,.4-6.75,0-10,0,3.31,.32,6.49,.87,10,0Z"/></svg>