<?xml version="1.0" encoding="UTF-8"?><svg id="a" xmlns="http://www.w3.org/2000/svg" viewBox="0 0 125.59 125.59"><defs><style>.b{stroke:#74716d;}.b,.c,.d,.e,.f,.g,.h{fill:none;stroke-width:.3px;}.i{fill:#1a1714;}.c{stroke:#858585;}.d{stroke:#6e6d6a;}.j{fill:#6e6d6a;}.k{fill:#646464;}.e{stroke:#646464;}.f{stroke:#060505;}.l{fill:#858585;}.g{stroke:#1a1714;}.m{fill:#171412;}.n{fill:#060505;}.o{fill:#74716d;}.h{stroke:#171412;}</style></defs><path class="f" d="M14.5,39.73c0,4.31-.23,8.7,0,13-1.47,12.23,11.09,28.16,22,16-2.41,10.37-6,19.98-6,31,0,11.01,12.45,15.96,22,15-3,4.79-4.19,10.96-1,16-4.58,1.01-10.28,1.59-13,6-13.85-11.2-25.64,19.14-8,20-5.59,9.01,2.73,19.58,11,23-6.03,10.44-10.8,16.23-13,29s9.35,19.56,21,20c7.32,.28,16.49,1.1,23,1,24.66-3.23,15.9-34.77,5-48,8.17-6.44,13.45-16.26,12-27,15.37,1.1,10.32-28.23-2.78-21.78-13.09,6.46-19.26-5.83-34.22-3.22-1.31-3.32,3.16-3.48,3-6-3.44,.31-2.84-3.03-2-5,2.02,.76,3.62,4.52,6,2-1.41-2.25-2.83-4.62-5-6,13-.47,32.22,4.39,37.07-9.93,4.86-14.31,2.22-24.41-4.07-37.07,7.9-6.72,19.47,8.27,23-6,.68-5.47,0-11.48,0-17,0-6.75,2-20.75-6-22-8-1.24-14.06,5.74-20.75,7.24-6.7,1.51-13.65-1.28-21.23-3.26-7.58-1.98-16.63,1.2-22.99,2.99-6.36,1.8-10.63-13.45-18-9.94-7.38,3.5-7.03,12.59-7.03,19.97m23-3c13.43-10.33,32.75-5.32,46,2,4.25-7.52,6.49-5.67,15.03-9.97,8.53-4.3,6.65,11.16,7.3,16.64,.65,5.48,2.78,21.41-5.4,17.4-8.19-4.01-11.94-.37-18.16,3.7-6.22,4.07-16.87-1.55-22,4-5.13,5.56-5.12,12.87-3,19.46,2.12,6.59,12.26,8.08,16.23,1.77-2.23,9.2-13.83,8.7-22.07,5.07-8.25-3.63-6.84-14.05-3.95-21.09,2.88-7.05-10.89-15.47-16.73-9.73-5.83,5.75-12.52-5.74-12.18-13.32,.35-7.59,.01-20.46,2.93-27.93,6.58,1.05,11.83,6.87,16,12m4,35c1.55,7.3-5.28,15.27,.31,22.69,5.58,7.43,10.78,8.49,19.71,9.29,8.94,.79,15.66-2.49,16.98-11.98,1.31-9.5-15.22-12.6-10-2-8.47,2.95-8.94-6.63-6.01-13.01s14.95-2.66,21.01-4.99c6.5,9.95,5.08,15.59,4.68,27.68-.41,12.09-16.47,11.15-25.68,10.32s-24.33,2.91-26.92-8.08c-2.59-10.99,3.75-20.59,5.92-29.92m53,71c.07,2.57-2.32,4.63-3,7-1.57,.39-4.22-.94-5,1-.9,.61-1.21,2.76-3,2,2.27,8.16,.63,13.75-4.3,20.7-4.94,6.95-11.82,5.87-19.7,5.3-7.88-.57-14.18-.59-20.75-6.25-6.57-5.65-2.76-12.31-5.25-18.75-3.78-3.93-9.41-1.72-7-9,3.02-9.13,7.31-1.45,12.03-2.03,4.71-.58,7.31-7.51,13.19-7.75,5.89-.23,13.27,.51,18.01,2.55,4.74,2.04,8.79,8.5,12.52,3.98s12.05-5.94,12.25,1.25m-45,41c5.98,.1,12.03-.36,18,0,1.99,.12,4-.09,6,0,6.04,11.15,19.32,32.91,2,40,.27-4.8,.9-12.71-6-12-1.66,1.64-6.86,1.28-9,4-2.2,2.79-.56,8.64-5,9,1.62-5.03,1.55-10.49-3-14-.4-.2-1,0-1,0-7.25-.78-10.35,4.25-10,11-11.28-.13-8.42-15.09-5.23-21.23,3.2-6.14,5.15-18.31,13.23-16.77m-3,40c-1.21-2.62,.69-10.73,4.23-8.21,3.54,2.52-1.43,8.4-4.23,8.21m24-7c1.31,4.71-1.75,9.52-7,8-.79-4.25,2.56-8.51,7-8Z"/><path class="b" d="M37.5,36.73c-4.17-5.13-9.42-10.95-16-12-2.92,7.47-2.58,20.34-2.93,27.93-.34,7.58,6.35,19.07,12.18,13.32,5.84-5.74,19.61,2.68,16.73,9.73-2.89,7.04-4.3,17.46,3.95,21.09,8.24,3.63,19.84,4.13,22.07-5.07-3.97,6.31-14.11,4.82-16.23-1.77-2.12-6.59-2.13-13.9,3-19.46,5.13-5.55,15.78,.07,22-4,6.22-4.07,9.97-7.71,18.16-3.7,8.18,4.01,6.05-11.92,5.4-17.4-.65-5.48,1.23-20.94-7.3-16.64-8.54,4.3-10.78,2.45-15.03,9.97-13.25-7.32-32.57-12.33-46-2m6,14c2.03,.92,.88,5.74-1.7,4.64-2.58-1.1-.69-5.73,1.7-4.64m30,0c2.03,.92,.88,5.74-1.7,4.64-2.58-1.1-.69-5.73,1.7-4.64Z"/><path class="c" d="M14.5,52.73c-.23-4.3,0-8.69,0-13-.4,4.13-.69,8.74,0,13Z"/><path class="e" d="M110.5,55.73c1.34-5.4,.52-11.62,0-17,0,5.52,.68,11.53,0,17Z"/><path class="h" d="M43.5,50.73c-2.39-1.09-4.28,3.54-1.7,4.64,2.58,1.1,3.73-3.72,1.7-4.64Z"/><path class="g" d="M73.5,50.73c-2.39-1.09-4.28,3.54-1.7,4.64,2.58,1.1,3.73-3.72,1.7-4.64Z"/><path class="d" d="M41.5,71.73c-2.17,9.33-8.51,18.93-5.92,29.92,2.59,10.99,17.71,7.25,26.92,8.08s25.27,1.77,25.68-10.32c.4-12.09,1.82-17.73-4.68-27.68-6.06,2.33-18.08-1.39-21.01,4.99s-2.46,15.96,6.01,13.01c-5.22-10.6,11.31-7.5,10,2-1.32,9.49-8.04,12.77-16.98,11.98-8.93-.8-14.13-1.86-19.71-9.29-5.59-7.42,1.24-15.39-.31-22.69Z"/><path class="n" d="M14.5,39.73c0,4.31-.23,8.7,0,13-1.47,12.23,11.09,28.16,22,16-2.41,10.37-6,19.98-6,31,0,11.01,12.45,15.96,22,15-3,4.79-4.19,10.96-1,16-4.58,1.01-10.28,1.59-13,6-13.85-11.2-25.64,19.14-8,20-5.59,9.01,2.73,19.58,11,23-6.03,10.44-10.8,16.23-13,29s9.35,19.56,21,20c7.32,.28,16.49,1.1,23,1,24.66-3.23,15.9-34.77,5-48,8.17-6.44,13.45-16.26,12-27,15.37,1.1,10.32-28.23-2.78-21.78-13.09,6.46-19.26-5.83-34.22-3.22-1.31-3.32,3.16-3.48,3-6-3.44,.31-2.84-3.03-2-5,2.02,.76,3.62,4.52,6,2-1.41-2.25-2.83-4.62-5-6,13-.47,32.22,4.39,37.07-9.93,4.86-14.31,2.22-24.41-4.07-37.07,7.9-6.72,19.47,8.27,23-6,.68-5.47,0-11.48,0-17,0-6.75,2-20.75-6-22-8-1.24-14.06,5.74-20.75,7.24-6.7,1.51-13.65-1.28-21.23-3.26-7.58-1.98-16.63,1.2-22.99,2.99-6.36,1.8-10.63-13.45-18-9.94-7.38,3.5-7.03,12.59-7.03,19.97m23-3c13.43-10.33,32.75-5.32,46,2,4.25-7.52,6.49-5.67,15.03-9.97,8.53-4.3,6.65,11.16,7.3,16.64,.65,5.48,2.78,21.41-5.4,17.4-8.19-4.01-11.94-.37-18.16,3.7-6.22,4.07-16.87-1.55-22,4-5.13,5.56-5.12,12.87-3,19.46,2.12,6.59,12.26,8.08,16.23,1.77-2.23,9.2-13.83,8.7-22.07,5.07-8.25-3.63-6.84-14.05-3.95-21.09,2.88-7.05-10.89-15.47-16.73-9.73-5.83,5.75-12.52-5.74-12.18-13.32,.35-7.59,.01-20.46,2.93-27.93,6.58,1.05,11.83,6.87,16,12m4,35c1.55,7.3-5.28,15.27,.31,22.69,5.58,7.43,10.78,8.49,19.71,9.29,8.94,.79,15.66-2.49,16.98-11.98,1.31-9.5-15.22-12.6-10-2-8.47,2.95-8.94-6.63-6.01-13.01s14.95-2.66,21.01-4.99c6.5,9.95,5.08,15.59,4.68,27.68-.41,12.09-16.47,11.15-25.68,10.32s-24.33,2.91-26.92-8.08c-2.59-10.99,3.75-20.59,5.92-29.92m53,71c.07,2.57-2.32,4.63-3,7-1.57,.39-4.22-.94-5,1-.9,.61-1.21,2.76-3,2,2.27,8.16,.63,13.75-4.3,20.7-4.94,6.95-11.82,5.87-19.7,5.3-7.88-.57-14.18-.59-20.75-6.25-6.57-5.65-2.76-12.31-5.25-18.75-3.78-3.93-9.41-1.72-7-9,3.02-9.13,7.31-1.45,12.03-2.03,4.71-.58,7.31-7.51,13.19-7.75,5.89-.23,13.27,.51,18.01,2.55,4.74,2.04,8.79,8.5,12.52,3.98s12.05-5.94,12.25,1.25m-45,41c5.98,.1,12.03-.36,18,0,1.99,.12,4-.09,6,0,6.04,11.15,19.32,32.91,2,40,.27-4.8,.9-12.71-6-12-1.66,1.64-6.86,1.28-9,4-2.2,2.79-.56,8.64-5,9,1.62-5.03,1.55-10.49-3-14-.4-.2-1,0-1,0-7.25-.78-10.35,4.25-10,11-11.28-.13-8.42-15.09-5.23-21.23,3.2-6.14,5.15-18.31,13.23-16.77m-3,40c-1.21-2.62,.69-10.73,4.23-8.21,3.54,2.52-1.43,8.4-4.23,8.21m24-7c1.31,4.71-1.75,9.52-7,8-.79-4.25,2.56-8.51,7-8Z"/><path class="o" d="M37.5,36.73c-4.17-5.13-9.42-10.95-16-12-2.92,7.47-2.58,20.34-2.93,27.93-.34,7.58,6.35,19.07,12.18,13.32,5.84-5.74,19.61,2.68,16.73,9.73-2.89,7.04-4.3,17.46,3.95,21.09,8.24,3.63,19.84,4.13,22.07-5.07-3.97,6.31-14.11,4.82-16.23-1.77-2.12-6.59-2.13-13.9,3-19.46,5.13-5.55,15.78,.07,22-4,6.22-4.07,9.97-7.71,18.16-3.7,8.18,4.01,6.05-11.92,5.4-17.4-.65-5.48,1.23-20.94-7.3-16.64-8.54,4.3-10.78,2.45-15.03,9.97-13.25-7.32-32.57-12.33-46-2m6,14c2.03,.92,.88,5.74-1.7,4.64-2.58-1.1-.69-5.73,1.7-4.64m30,0c2.03,.92,.88,5.74-1.7,4.64-2.58-1.1-.69-5.73,1.7-4.64Z"/><path class="l" d="M14.5,52.73c-.23-4.3,0-8.69,0-13-.4,4.13-.69,8.74,0,13Z"/><path class="k" d="M110.5,55.73c1.34-5.4,.52-11.62,0-17,0,5.52,.68,11.53,0,17Z"/><path class="m" d="M43.5,50.73c-2.39-1.09-4.28,3.54-1.7,4.64,2.58,1.1,3.73-3.72,1.7-4.64Z"/><path class="i" d="M73.5,50.73c-2.39-1.09-4.28,3.54-1.7,4.64,2.58,1.1,3.73-3.72,1.7-4.64Z"/><path class="j" d="M41.5,71.73c-2.17,9.33-8.51,18.93-5.92,29.92,2.59,10.99,17.71,7.25,26.92,8.08s25.27,1.77,25.68-10.32c.4-12.09,1.82-17.73-4.68-27.68-6.06,2.33-18.08-1.39-21.01,4.99s-2.46,15.96,6.01,13.01c-5.22-10.6,11.31-7.5,10,2-1.32,9.49-8.04,12.77-16.98,11.98-8.93-.8-14.13-1.86-19.71-9.29-5.59-7.42,1.24-15.39-.31-22.69Z"/></svg>