<?xml version="1.0" encoding="UTF-8"?><svg id="a" xmlns="http://www.w3.org/2000/svg" viewBox="0 0 125.59 125.59"><defs><style>.b{fill:#808180;}.c{stroke:#808180;}.c,.d,.e,.f,.g,.h,.i{fill:none;stroke-width:.3px;}.j{fill:#160d07;}.k{fill:#614b2f;}.d{stroke:#84807d;}.e{stroke:#160d07;}.f{stroke:#763103;}.g{stroke:#614b2f;}.l{fill:#060403;}.m{fill:#787878;}.n{fill:#84807d;}.h{stroke:#787878;}.i{stroke:#060403;}.o{fill:#763103;}</style></defs><path class="i" d="M10.12,37.56c1.39,3.77,3.58,3.75,4,9,.56,7.02,2.73,13.04,3,20,.96,6.72,.5,14.66,1,22,.44,7.66,4.68,14.85,13,16,8.32,1.16,17.98,1.15,27,1s18.75,.2,28,0,16.24,.84,24.92-3.08c8.69-3.91,.17-12.91-6.92-12.92,25.92-16.32,4.03-43.12-18-48-3.8-.39-8.19-.26-12,0-6.61,2.21-13.87,.3-18.75,7.25-4.89,6.94-11.74-2.59-8.17-9.17,3.57-6.57,3.32-12.34-3.86-16.3-7.18-3.96-14.74,4.55-10.14,11.14,4.6,6.59,.58,12.17-5.08,16.08-4.31-7.36,2.61-18.23-4.77-24.23-7.38-6-15.53,2.62-13.23,11.23m100,60c-8.6,4.94-19.14,2.61-29,3-9.86,.38-23.44-.29-33,0s-21.33,1.69-24.92-8.08c-3.58-9.77,1.18-21.72-2.01-30.99-3.18-9.28,.37-20.03-7.07-25.93,.59-8.87,8.07-5.88,6.23,.23-1.84,6.11,.57,13.78,4.07,18.47,3.51,4.68,10.37-2.54,13-6.4,2.63-3.85,.96-14.83,5.7-15.3-.51-5.44-3.92-.77-6,0,.24-11.31,10.15-2.78,6.01,5.01-4.15,7.78,3.3,14.31,4.96,20.02,1.67,5.71,2.02,14.43,7.28,18.72s5.83,10.33,12.45,12.55c6.61,2.23,15.27,1.81,22.32,2.68,7.06,.86,13.94,2.96,19.98,6.02m-20-23c-10.71-6.48-4.76,6.98,2,4,6.76-2.99,3.59-14.52-2.08-15.92-5.67-1.4-15.06-.59-18.67,5.17-3.61,5.75,1.12,12.85,3.75,17.75-9.67-2.47-17.45-8.24-20.77-19.23-3.32-10.98,9.65-18.79,19.44-20.1,9.79-1.31,23.9,1.62,30.58,9.08s10.66,22.19,1.5,28c-9.15,5.81-20.75,5.12-29.5-4-8.76-9.12,17.29-21.59,13.75-4.75Z"/><path class="g" d="M110.12,97.56c-6.04-3.06-12.92-5.16-19.98-6.02-7.05-.87-15.71-.45-22.32-2.68-6.62-2.22-7.19-8.26-12.45-12.55s-5.61-13.01-7.28-18.72c-1.66-5.71-9.11-12.24-4.96-20.02,4.14-7.79-5.77-16.32-6.01-5.01,2.08-.77,5.49-5.44,6,0-4.74,.47-3.07,11.45-5.7,15.3-2.63,3.86-9.49,11.08-13,6.4-3.5-4.69-5.91-12.36-4.07-18.47,1.84-6.11-5.64-9.1-6.23-.23,7.44,5.9,3.89,16.65,7.07,25.93,3.19,9.27-1.57,21.22,2.01,30.99,3.59,9.77,15.36,8.37,24.92,8.08s23.14,.38,33,0c9.86-.39,20.4,1.94,29-3M16.12,34.56c-.55-8.07,8.11,.49,0,0m21,41c1.14,4.16-6.71,5.77-8,2,2.04-1.43,5.36-1.47,8-2Z"/><path class="c" d="M14.12,46.56c-.42-5.25-2.61-5.23-4-9,.81,3.02,3.47,5.84,4,9Z"/><path class="d" d="M74.12,41.56c3.81-.26,8.2-.39,12,0-4.02-.89-7.95-.73-12,0Z"/><path class="f" d="M90.12,74.56c3.54-16.84-22.51-4.37-13.75,4.75,8.75,9.12,20.35,9.81,29.5,4,9.16-5.81,5.18-20.54-1.5-28s-20.79-10.39-30.58-9.08c-9.79,1.31-22.76,9.12-19.44,20.1,3.32,10.99,11.1,16.76,20.77,19.23-2.63-4.9-7.36-12-3.75-17.75,3.61-5.76,13-6.57,18.67-5.17,5.67,1.4,8.84,12.93,2.08,15.92-6.76,2.98-12.71-10.48-2-4Z"/><path class="h" d="M18.12,88.56c-.5-7.34-.04-15.28-1-22,.28,7.39-.21,15.27,1,22Z"/><path class="e" d="M37.12,75.56c-2.64,.53-5.96,.57-8,2,1.29,3.77,9.14,2.16,8-2Z"/><path class="l" d="M10.12,37.56c1.39,3.77,3.58,3.75,4,9,.56,7.02,2.73,13.04,3,20,.96,6.72,.5,14.66,1,22,.44,7.66,4.68,14.85,13,16,8.32,1.16,17.98,1.15,27,1s18.75,.2,28,0,16.24,.84,24.92-3.08c8.69-3.91,.17-12.91-6.92-12.92,25.92-16.32,4.03-43.12-18-48-3.8-.39-8.19-.26-12,0-6.61,2.21-13.87,.3-18.75,7.25-4.89,6.94-11.74-2.59-8.17-9.17,3.57-6.57,3.32-12.34-3.86-16.3-7.18-3.96-14.74,4.55-10.14,11.14,4.6,6.59,.58,12.17-5.08,16.08-4.31-7.36,2.61-18.23-4.77-24.23-7.38-6-15.53,2.62-13.23,11.23m100,60c-8.6,4.94-19.14,2.61-29,3-9.86,.38-23.44-.29-33,0s-21.33,1.69-24.92-8.08c-3.58-9.77,1.18-21.72-2.01-30.99-3.18-9.28,.37-20.03-7.07-25.93,.59-8.87,8.07-5.88,6.23,.23-1.84,6.11,.57,13.78,4.07,18.47,3.51,4.68,10.37-2.54,13-6.4,2.63-3.85,.96-14.83,5.7-15.3-.51-5.44-3.92-.77-6,0,.24-11.31,10.15-2.78,6.01,5.01-4.15,7.78,3.3,14.31,4.96,20.02,1.67,5.71,2.02,14.43,7.28,18.72s5.83,10.33,12.45,12.55c6.61,2.23,15.27,1.81,22.32,2.68,7.06,.86,13.94,2.96,19.98,6.02m-20-23c-10.71-6.48-4.76,6.98,2,4,6.76-2.99,3.59-14.52-2.08-15.92-5.67-1.4-15.06-.59-18.67,5.17-3.61,5.75,1.12,12.85,3.75,17.75-9.67-2.47-17.45-8.24-20.77-19.23-3.32-10.98,9.65-18.79,19.44-20.1,9.79-1.31,23.9,1.62,30.58,9.08s10.66,22.19,1.5,28c-9.15,5.81-20.75,5.12-29.5-4-8.76-9.12,17.29-21.59,13.75-4.75Z"/><path class="k" d="M110.12,97.56c-6.04-3.06-12.92-5.16-19.98-6.02-7.05-.87-15.71-.45-22.32-2.68-6.62-2.22-7.19-8.26-12.45-12.55s-5.61-13.01-7.28-18.72c-1.66-5.71-9.11-12.24-4.96-20.02,4.14-7.79-5.77-16.32-6.01-5.01,2.08-.77,5.49-5.44,6,0-4.74,.47-3.07,11.45-5.7,15.3-2.63,3.86-9.49,11.08-13,6.4-3.5-4.69-5.91-12.36-4.07-18.47,1.84-6.11-5.64-9.1-6.23-.23,7.44,5.9,3.89,16.65,7.07,25.93,3.19,9.27-1.57,21.22,2.01,30.99,3.59,9.77,15.36,8.37,24.92,8.08s23.14,.38,33,0c9.86-.39,20.4,1.94,29-3M16.12,34.56c-.55-8.07,8.11,.49,0,0m21,41c1.14,4.16-6.71,5.77-8,2,2.04-1.43,5.36-1.47,8-2Z"/><path class="b" d="M14.12,46.56c-.42-5.25-2.61-5.23-4-9,.81,3.02,3.47,5.84,4,9Z"/><path class="n" d="M74.12,41.56c3.81-.26,8.2-.39,12,0-4.02-.89-7.95-.73-12,0Z"/><path class="o" d="M90.12,74.56c3.54-16.84-22.51-4.37-13.75,4.75,8.75,9.12,20.35,9.81,29.5,4,9.16-5.81,5.18-20.54-1.5-28s-20.79-10.39-30.58-9.08c-9.79,1.31-22.76,9.12-19.44,20.1,3.32,10.99,11.1,16.76,20.77,19.23-2.63-4.9-7.36-12-3.75-17.75,3.61-5.76,13-6.57,18.67-5.17,5.67,1.4,8.84,12.93,2.08,15.92-6.76,2.98-12.71-10.48-2-4Z"/><path class="m" d="M18.12,88.56c-.5-7.34-.04-15.28-1-22,.28,7.39-.21,15.27,1,22Z"/><path class="j" d="M37.12,75.56c-2.64,.53-5.96,.57-8,2,1.29,3.77,9.14,2.16,8-2Z"/></svg>