<?xml version="1.0" encoding="UTF-8"?><svg id="a" xmlns="http://www.w3.org/2000/svg" viewBox="0 0 125.59 125.59"><defs><style>.b{stroke:#6f4804;}.b,.c,.d,.e,.f,.g,.h,.i,.j,.k,.l,.m{fill:none;stroke-width:.3px;}.n{fill:#3e230b;}.c{stroke:#fbfaf6;}.d{stroke:#dc8807;}.o{fill:#6f4804;}.p{fill:#cb7e10;}.e{stroke:#5e3702;}.f{stroke:#f3d8a0;}.q{fill:#dd8a11;}.r{fill:#5e3702;}.s{fill:#dc8807;}.g{stroke:#e08b06;}.h{stroke:#cb7e10;}.t{fill:#e08b06;}.u{fill:#0d0a09;}.v{fill:#f9f8f5;}.w{fill:#311d0e;}.x{fill:#f3d8a0;}.i{stroke:#3e230b;}.j{stroke:#311d0e;}.k{stroke:#0d0a09;}.l{stroke:#f9f8f5;}.m{stroke:#dd8a11;}.y{fill:#fbfaf6;}</style></defs><path class="k" d="M34.47,23.98c-6.22-6.97-6.92-7.67-13.75-15.25s-9.98,3.56-10.32,11.18c-.35,7.61-1.36,17,2.14,24,3.5,6.99-8.24,15.44-3.32,22.32,4.93,6.87,13.31,6.14,20.25,7.75-1.85,8.38-5.51,16.27-6,25-.49,8.73,4.11,16.9,13,18,8.89,1.11,20.71,2.56,28.93-.07,8.21-2.64,14.66-6.82,22.85-8.15,8.18-1.34,12.85-7.86,16.91-14.09,4.07-6.22,5.3-21.07-3.62-16.62-8.91,4.46-12.85,4.19-21.07,8.93,.09-3.59-1.77-6.37-4-9,6.13-2.86,16.67-3.37,20.22-10.78s-7.46-14.13-7.9-21.54c-.44-7.41,5.34-14.95,3.66-24.66-1.68-9.71-4.56-15.64-12.73-9.77-8.18,5.86-9.77,9.23-17.58,13.42s-19.47-6.62-27.67-.67m37,49c-15.04,.57-29.41-.79-43-4-5.32-1.26-18.43-2.62-14.02-11.02,4.4-8.41,4.34-12.78,1.09-21.05-3.24-8.28-.12-16.9,.93-24.93,6.31,4.24,7.21,10.18,13.75,14.25,6.54,4.08,17.67-.24,25.25,2.75,7.59,2.98,12.75-2.76,18.25-7.75,5.49-4.99,12.68-10.35,13.75-.25,1.06,10.11-3.33,15.12-3.22,23.22s6.65,13.12,8.22,20.78c-5.85,5.21-13.03,8.31-21,8m-30,4c6.01,.73,11.81,1,18,1h13c4.99,9.62,9.54,28.72-5,33-2.73-3.46,4.52-11.38-.26-13.74-4.77-2.36-3.84,9.19-5.74,10.74-.4-2.11-1.38-4.66-3-6-3.55-.48-1.82,1.11-3,3-.31,2.67,2.78,5.37,3,8-4.64,1.46-5.75-2.12-5-6-.25-1.97,.19-4.02,0-6-1.56-.41-2.69,.46-4,1-1.11,1.91,.22,5.94-1,8-4.21-2.01-2.89-10.41-9-9-.6,4.45,3.29,7.59,3,12-21.19,.09-13.38-25.08-8-37,2.19,.52,5.62-1.14,7,1m40,23c-.36-2.96,.27-6.03,0-9,1.89,.06,3.29-1.42,5-2,5.22-2.1,9.95-1.89,15,1-2.23,8.72-11.27,14.63-20,15v-5Z"/><path class="g" d="M28.47,68.98c-1.77-4.86,9.22-4.52,11.69-7.31,2.48-2.79,9.91-5.66,14.31-4.69,3.14,.7,3.75,3.24,6,5,4.57,2.52,12.66,3.74,11,11,7.97,.31,15.15-2.79,21-8-1.57-7.66-8.11-12.68-8.22-20.78s4.28-13.11,3.22-23.22c-1.07-10.1-8.26-4.74-13.75,.25-5.5,4.99-10.66,10.73-18.25,7.75-7.58-2.99-18.71,1.33-25.25-2.75-6.54-4.07-7.44-10.01-13.75-14.25-1.05,8.03-4.17,16.65-.93,24.93,3.25,8.27,3.31,12.64-1.09,21.05-4.41,8.4,8.7,9.76,14.02,11.02m3-22c2.09,.91-.21,6.08-2.7,4.64-2.49-1.44-.52-6.04,2.7-4.64m42,0c1.72,1.72-1.47,5.85-3.67,3.67-2.2-2.18,2-5.34,3.67-3.67Z"/><path class="i" d="M31.47,46.98c-3.22-1.4-5.19,3.2-2.7,4.64,2.49,1.44,4.79-3.73,2.7-4.64Z"/><path class="j" d="M73.47,46.98c-1.67-1.67-5.87,1.49-3.67,3.67,2.2,2.18,5.39-1.95,3.67-3.67Z"/><path class="l" d="M28.47,68.98c13.59,3.21,27.96,4.57,43,4,1.66-7.26-6.43-8.48-11-11-1.77-.97-4.59-4.48-6-5-4.4-.97-11.83,1.9-14.31,4.69-2.47,2.79-13.46,2.45-11.69,7.31Z"/><path class="f" d="M60.47,61.98c-2.25-1.76-2.86-4.3-6-5,1.41,.52,4.23,4.03,6,5Z"/><path class="m" d="M49.47,101.98c1.42-2.44,6.76-1.59,9,0,1.62,1.34,2.6,3.89,3,6,1.9-1.55,.97-13.1,5.74-10.74,4.78,2.36-2.47,10.28,.26,13.74,14.54-4.28,9.99-23.38,5-33h-13c4.79,3.39-.07,15.45-8,14s-6.07-11.04-10-15c-1.38-2.14-4.81-.48-7-1-5.38,11.92-13.19,37.09,8,37,.29-4.41-3.6-7.55-3-12,6.11-1.41,4.79,6.99,9,9,1.22-2.06-.11-6.09,1-8Z"/><path class="c" d="M59.47,77.98c-6.19,0-11.99-.27-18-1,3.93,3.96,2.07,13.55,10,15s12.79-10.61,8-14Z"/><path class="d" d="M86.47,88.98c-1.24,.69-2.08,3-4,3-.56,2.52,1.19,6.3-1,8v5c8.73-.37,17.77-6.28,20-15-5.05-2.89-9.78-3.1-15-1Z"/><path class="b" d="M81.47,99.98c2.19-1.7,.44-5.48,1-8,1.92,0,2.76-2.31,4-3-1.71,.58-3.11,2.06-5,2,.27,2.97-.36,6.04,0,9Z"/><path class="e" d="M49.47,101.98c1.31-.54,2.44-1.41,4-1,.19,1.98-.25,4.03,0,6,.21-.61,1.67-1.46,2-2,1.18-1.89-.55-3.48,3-3-2.24-1.59-7.58-2.44-9,0Z"/><path class="h" d="M53.47,106.98c-.75,3.88,.36,7.46,5,6-.22-2.63-3.31-5.33-3-8-.33,.54-1.79,1.39-2,2Z"/><path class="u" d="M34.47,23.98c-6.22-6.97-6.92-7.67-13.75-15.25s-9.98,3.56-10.32,11.18c-.35,7.61-1.36,17,2.14,24,3.5,6.99-8.24,15.44-3.32,22.32,4.93,6.87,13.31,6.14,20.25,7.75-1.85,8.38-5.51,16.27-6,25-.49,8.73,4.11,16.9,13,18,8.89,1.11,20.71,2.56,28.93-.07,8.21-2.64,14.66-6.82,22.85-8.15,8.18-1.34,12.85-7.86,16.91-14.09,4.07-6.22,5.3-21.07-3.62-16.62-8.91,4.46-12.85,4.19-21.07,8.93,.09-3.59-1.77-6.37-4-9,6.13-2.86,16.67-3.37,20.22-10.78s-7.46-14.13-7.9-21.54c-.44-7.41,5.34-14.95,3.66-24.66-1.68-9.71-4.56-15.64-12.73-9.77-8.18,5.86-9.77,9.23-17.58,13.42s-19.47-6.62-27.67-.67m37,49c-15.04,.57-29.41-.79-43-4-5.32-1.26-18.43-2.62-14.02-11.02,4.4-8.41,4.34-12.78,1.09-21.05-3.24-8.28-.12-16.9,.93-24.93,6.31,4.24,7.21,10.18,13.75,14.25,6.54,4.08,17.67-.24,25.25,2.75,7.59,2.98,12.75-2.76,18.25-7.75,5.49-4.99,12.68-10.35,13.75-.25,1.06,10.11-3.33,15.12-3.22,23.22s6.65,13.12,8.22,20.78c-5.85,5.21-13.03,8.31-21,8m-30,4c6.01,.73,11.81,1,18,1h13c4.99,9.62,9.54,28.72-5,33-2.73-3.46,4.52-11.38-.26-13.74-4.77-2.36-3.84,9.19-5.74,10.74-.4-2.11-1.38-4.66-3-6-3.55-.48-1.82,1.11-3,3-.31,2.67,2.78,5.37,3,8-4.64,1.46-5.75-2.12-5-6-.25-1.97,.19-4.02,0-6-1.56-.41-2.69,.46-4,1-1.11,1.91,.22,5.94-1,8-4.21-2.01-2.89-10.41-9-9-.6,4.45,3.29,7.59,3,12-21.19,.09-13.38-25.08-8-37,2.19,.52,5.62-1.14,7,1m40,23c-.36-2.96,.27-6.03,0-9,1.89,.06,3.29-1.42,5-2,5.22-2.1,9.95-1.89,15,1-2.23,8.72-11.27,14.63-20,15v-5Z"/><path class="t" d="M28.47,68.98c-1.77-4.86,9.22-4.52,11.69-7.31,2.48-2.79,9.91-5.66,14.31-4.69,3.14,.7,3.75,3.24,6,5,4.57,2.52,12.66,3.74,11,11,7.97,.31,15.15-2.79,21-8-1.57-7.66-8.11-12.68-8.22-20.78s4.28-13.11,3.22-23.22c-1.07-10.1-8.26-4.74-13.75,.25-5.5,4.99-10.66,10.73-18.25,7.75-7.58-2.99-18.71,1.33-25.25-2.75-6.54-4.07-7.44-10.01-13.75-14.25-1.05,8.03-4.17,16.65-.93,24.93,3.25,8.27,3.31,12.64-1.09,21.05-4.41,8.4,8.7,9.76,14.02,11.02m3-22c2.09,.91-.21,6.08-2.7,4.64-2.49-1.44-.52-6.04,2.7-4.64m42,0c1.72,1.72-1.47,5.85-3.67,3.67-2.2-2.18,2-5.34,3.67-3.67Z"/><path class="n" d="M31.47,46.98c-3.22-1.4-5.19,3.2-2.7,4.64,2.49,1.44,4.79-3.73,2.7-4.64Z"/><path class="w" d="M73.47,46.98c-1.67-1.67-5.87,1.49-3.67,3.67,2.2,2.18,5.39-1.95,3.67-3.67Z"/><path class="v" d="M28.47,68.98c13.59,3.21,27.96,4.57,43,4,1.66-7.26-6.43-8.48-11-11-1.77-.97-4.59-4.48-6-5-4.4-.97-11.83,1.9-14.31,4.69-2.47,2.79-13.46,2.45-11.69,7.31Z"/><path class="x" d="M60.47,61.98c-2.25-1.76-2.86-4.3-6-5,1.41,.52,4.23,4.03,6,5Z"/><path class="q" d="M49.47,101.98c1.42-2.44,6.76-1.59,9,0,1.62,1.34,2.6,3.89,3,6,1.9-1.55,.97-13.1,5.74-10.74,4.78,2.36-2.47,10.28,.26,13.74,14.54-4.28,9.99-23.38,5-33h-13c4.79,3.39-.07,15.45-8,14s-6.07-11.04-10-15c-1.38-2.14-4.81-.48-7-1-5.38,11.92-13.19,37.09,8,37,.29-4.41-3.6-7.55-3-12,6.11-1.41,4.79,6.99,9,9,1.22-2.06-.11-6.09,1-8Z"/><path class="y" d="M59.47,77.98c-6.19,0-11.99-.27-18-1,3.93,3.96,2.07,13.55,10,15s12.79-10.61,8-14Z"/><path class="s" d="M86.47,88.98c-1.24,.69-2.08,3-4,3-.56,2.52,1.19,6.3-1,8v5c8.73-.37,17.77-6.28,20-15-5.05-2.89-9.78-3.1-15-1Z"/><path class="o" d="M81.47,99.98c2.19-1.7,.44-5.48,1-8,1.92,0,2.76-2.31,4-3-1.71,.58-3.11,2.06-5,2,.27,2.97-.36,6.04,0,9Z"/><path class="r" d="M49.47,101.98c1.31-.54,2.44-1.41,4-1,.19,1.98-.25,4.03,0,6,.21-.61,1.67-1.46,2-2,1.18-1.89-.55-3.48,3-3-2.24-1.59-7.58-2.44-9,0Z"/><path class="p" d="M53.47,106.98c-.75,3.88,.36,7.46,5,6-.22-2.63-3.31-5.33-3-8-.33,.54-1.79,1.39-2,2Z"/></svg>