<?xml version="1.0" encoding="UTF-8"?><svg id="a" xmlns="http://www.w3.org/2000/svg" viewBox="0 0 125.59 125.59"><defs><style>.b{stroke:#707070;}.b,.c,.d,.e,.f,.g,.h,.i,.j,.k{fill:none;stroke-width:.3px;}.c{stroke:#040404;}.l{fill:#d8d8d8;}.m{fill:#040404;}.n{fill:#4e4e4e;}.d{stroke:#999;}.o{fill:#707070;}.p{fill:#646464;}.e{stroke:#191919;}.f{stroke:#646464;}.g{stroke:#7e7e7e;}.h{stroke:#4e4e4e;}.q{fill:#d5d5d5;}.r{fill:#999;}.s{fill:#7e7e7e;}.t{fill:#191919;}.u{fill:#545454;}.i{stroke:#d5d5d5;}.j{stroke:#d8d8d8;}.k{stroke:#545454;}</style></defs><path class="c" d="M57.15,112.65c3.57,0,7.46,.44,11,0,5.12-.41,11.48-4.53,12-10,5.64,1.57,8.32-3.81,11.23-6.77,2.91-2.96,.34-13.18,3.07-14.93,2.74-1.74,10.81-8.76,.4-5.6-10.41,3.15-.9,21.53-13.7,22.3,.35-7.34,.22-14.65-3-21,4.65-3.49,20.19,.13,10-7,1.01-4.6,4.5-5.88,9-5,.94-3.36-1.6-6.02-5-5,3.69-13.24-2.86-21.34,0-35s-20.31,2.27-25,4c-4.25,1.57-13.9,2.19-18,0-6.24-3.08-9.1-15.72-17.97-14.97-8.88,.75-3.69,19.19-7.26,24.74-3.57,5.55-5.86,20.32-14.77,17.23-.63,6.65,12.41,2.97,11,12-2.91,1.44-7.3,2.64-6,7,7.49-3.21,13.02-2.25,20,2-2.34,9.06-7.83,18.83-3.25,28.25,4.57,9.43,17.27,7.75,26.25,7.75m15-39c-5.77,1.11-12.37,.55-18,0-9.12,0-18.08-.68-26-5,3.28-4.19-2.17-5.13-5-6-1.14-7.88-.74-17.3,7-23-2.08-6.61,.19-13.36,1-20,9.74,5.33,13.53,15.05,26,14s19.97-2.55,30-10c-6.71,12.2,4.91,22.81,1,35-2.03,1.71-4.96,.31-7,2-.87,3.62,4.51,1.85,4,5-3.79-.1-9.86,.92-5,6-2.53,1.14-5.22,1.7-8,2m-23,5c1.33,.06,2.67,0,4,0h8c3.57,0,10.45-1.22,13,1,1.5,1.31,1.85,6.09,2,8,.62,3.19,.44,5.92,0,9-.19,4.97-.67,9.18-6,11,.51-3.14,2.9-9.83-3-9-.62,2.67-1.32,7.02-5,7-1.16-7.74-6.17-2.8-11-4-.3,2.04-1.29,5.27-4,5,.75-10.39-9.3-8.41-5,1-14.51-3.04-8.59-35.88,7-29m9,30c-7.55,1.51-.69-7.7,0,0Z"/><path class="d" d="M54.15,73.65c5.94,0,12.09,.47,18,0,2.78-.3,5.47-.86,8-2-4.86-5.08,1.21-6.1,5-6,.51-3.15-4.87-1.38-4-5,2.04-1.69,4.97-.29,7-2,3.91-12.19-7.71-22.8-1-35-10.03,7.45-17.53,8.95-30,10s-16.26-8.67-26-14c-.81,6.64-3.08,13.39-1,20-7.74,5.7-8.14,15.12-7,23,2.83,.87,8.28,1.81,5,6,7.92,4.32,16.88,5,26,5m14-39c.23,6.97-2.91,20.29-12,19-9.1-1.29-8.75-13.38-11-20,7.22,2.04,15.38,.54,23,1M31.15,57.65c-1.36-8.91,8.97,1.27,0,0m45-4c2.03,.92,.88,5.74-1.7,4.64s-.69-5.73,1.7-4.64Z"/><path class="g" d="M67.15,28.65c-3.89,.86-14.27,1.31-18,0,4.1,2.19,13.75,1.57,18,0Z"/><path class="i" d="M68.15,34.65c-7.62-.46-15.78,1.04-23-1,2.25,6.62,1.9,18.71,11,20,9.09,1.29,12.23-12.03,12-19Z"/><path class="e" d="M76.15,53.65c-2.39-1.09-4.28,3.54-1.7,4.64s3.73-3.72,1.7-4.64Z"/><path class="h" d="M72.15,73.65c-5.91,.47-12.06,0-18,0,5.63,.55,12.23,1.11,18,0Z"/><path class="d" d="M76.15,96.65c.11-2.93,.23-6.08,0-9-.15-1.91-.5-6.69-2-8-4.31,.83-9.47-.66-13-1h-8c10.73,1.46,15.48,10.43,5.3,17.3-10.17,6.87-17.02-14.48-9.3-17.3-15.59-6.88-21.51,25.96-7,29-4.3-9.41,5.75-11.39,5-1,2.71,.27,3.7-2.96,4-5,4.83,1.2,9.84-3.74,11,4,3.68,.02,4.38-4.33,5-7,5.9-.83,3.51,5.86,3,9,5.33-1.82,5.81-6.03,6-11Z"/><path class="j" d="M53.15,78.65c-1.33,0-2.67,.06-4,0-7.72,2.82-.87,24.17,9.3,17.3,10.18-6.87,5.43-15.84-5.3-17.3Z"/><path class="f" d="M74.15,79.65c-2.55-2.22-9.43-1-13-1,3.53,.34,8.69,1.83,13,1Z"/><path class="k" d="M76.15,96.65c.44-3.08,.62-5.81,0-9,.23,2.92,.11,6.07,0,9Z"/><path class="b" d="M68.15,112.65c-3.54,.44-7.43,0-11,0,3.6,.35,7.21,.94,11,0Z"/><path class="m" d="M57.15,112.65c3.57,0,7.46,.44,11,0,5.12-.41,11.48-4.53,12-10,5.64,1.57,8.32-3.81,11.23-6.77,2.91-2.96,.34-13.18,3.07-14.93,2.74-1.74,10.81-8.76,.4-5.6-10.41,3.15-.9,21.53-13.7,22.3,.35-7.34,.22-14.65-3-21,4.65-3.49,20.19,.13,10-7,1.01-4.6,4.5-5.88,9-5,.94-3.36-1.6-6.02-5-5,3.69-13.24-2.86-21.34,0-35s-20.31,2.27-25,4c-4.25,1.57-13.9,2.19-18,0-6.24-3.08-9.1-15.72-17.97-14.97-8.88,.75-3.69,19.19-7.26,24.74-3.57,5.55-5.86,20.32-14.77,17.23-.63,6.65,12.41,2.97,11,12-2.91,1.44-7.3,2.64-6,7,7.49-3.21,13.02-2.25,20,2-2.34,9.06-7.83,18.83-3.25,28.25,4.57,9.43,17.27,7.75,26.25,7.75m15-39c-5.77,1.11-12.37,.55-18,0-9.12,0-18.08-.68-26-5,3.28-4.19-2.17-5.13-5-6-1.14-7.88-.74-17.3,7-23-2.08-6.61,.19-13.36,1-20,9.74,5.33,13.53,15.05,26,14s19.97-2.55,30-10c-6.71,12.2,4.91,22.81,1,35-2.03,1.71-4.96,.31-7,2-.87,3.62,4.51,1.85,4,5-3.79-.1-9.86,.92-5,6-2.53,1.14-5.22,1.7-8,2m-23,5c1.33,.06,2.67,0,4,0h8c3.57,0,10.45-1.22,13,1,1.5,1.31,1.85,6.09,2,8,.62,3.19,.44,5.92,0,9-.19,4.97-.67,9.18-6,11,.51-3.14,2.9-9.83-3-9-.62,2.67-1.32,7.02-5,7-1.16-7.74-6.17-2.8-11-4-.3,2.04-1.29,5.27-4,5,.75-10.39-9.3-8.41-5,1-14.51-3.04-8.59-35.88,7-29m9,30c-7.55,1.51-.69-7.7,0,0Z"/><path class="r" d="M54.15,73.65c5.94,0,12.09,.47,18,0,2.78-.3,5.47-.86,8-2-4.86-5.08,1.21-6.1,5-6,.51-3.15-4.87-1.38-4-5,2.04-1.69,4.97-.29,7-2,3.91-12.19-7.71-22.8-1-35-10.03,7.45-17.53,8.95-30,10s-16.26-8.67-26-14c-.81,6.64-3.08,13.39-1,20-7.74,5.7-8.14,15.12-7,23,2.83,.87,8.28,1.81,5,6,7.92,4.32,16.88,5,26,5m14-39c.23,6.97-2.91,20.29-12,19-9.1-1.29-8.75-13.38-11-20,7.22,2.04,15.38,.54,23,1M31.15,57.65c-1.36-8.91,8.97,1.27,0,0m45-4c2.03,.92,.88,5.74-1.7,4.64s-.69-5.73,1.7-4.64Z"/><path class="s" d="M67.15,28.65c-3.89,.86-14.27,1.31-18,0,4.1,2.19,13.75,1.57,18,0Z"/><path class="q" d="M68.15,34.65c-7.62-.46-15.78,1.04-23-1,2.25,6.62,1.9,18.71,11,20,9.09,1.29,12.23-12.03,12-19Z"/><path class="t" d="M76.15,53.65c-2.39-1.09-4.28,3.54-1.7,4.64s3.73-3.72,1.7-4.64Z"/><path class="n" d="M72.15,73.65c-5.91,.47-12.06,0-18,0,5.63,.55,12.23,1.11,18,0Z"/><path class="r" d="M76.15,96.65c.11-2.93,.23-6.08,0-9-.15-1.91-.5-6.69-2-8-4.31,.83-9.47-.66-13-1h-8c10.73,1.46,15.48,10.43,5.3,17.3-10.17,6.87-17.02-14.48-9.3-17.3-15.59-6.88-21.51,25.96-7,29-4.3-9.41,5.75-11.39,5-1,2.71,.27,3.7-2.96,4-5,4.83,1.2,9.84-3.74,11,4,3.68,.02,4.38-4.33,5-7,5.9-.83,3.51,5.86,3,9,5.33-1.82,5.81-6.03,6-11Z"/><path class="l" d="M53.15,78.65c-1.33,0-2.67,.06-4,0-7.72,2.82-.87,24.17,9.3,17.3,10.18-6.87,5.43-15.84-5.3-17.3Z"/><path class="p" d="M74.15,79.65c-2.55-2.22-9.43-1-13-1,3.53,.34,8.69,1.83,13,1Z"/><path class="u" d="M76.15,96.65c.44-3.08,.62-5.81,0-9,.23,2.92,.11,6.07,0,9Z"/><path class="o" d="M68.15,112.65c-3.54,.44-7.43,0-11,0,3.6,.35,7.21,.94,11,0Z"/></svg>