<?xml version="1.0" encoding="UTF-8"?><svg id="a" xmlns="http://www.w3.org/2000/svg" viewBox="0 0 125.59 125.59"><defs><style>.b{fill:#e6d206;}.c{stroke:#736b29;}.c,.d,.e,.f,.g,.h,.i,.j,.k{fill:none;stroke-width:.3px;}.l{fill:#766a06;}.d{stroke:#100e0a;}.m{fill:#100e0a;}.e{stroke:#e6d206;}.n{fill:#2b2b11;}.o{fill:#0a0b09;}.f{stroke:#e6d207;}.p{fill:#b47207;}.g{stroke:#b47207;}.h{stroke:#0a0b09;}.q{fill:#e6d207;}.r{fill:#736b29;}.s{fill:#372307;}.i{stroke:#2b2b11;}.j{stroke:#372307;}.k{stroke:#766a06;}</style></defs><path class="h" d="M70.58,20.26c.32-3.4,5.68-11.33,.01-11.99-5.67-.66-7.6,3.37-10.01,6.99-5.95-9.13-15.79-5.39-10,5-15.94-1.93-25.19,10.55-30.69,23.31-5.51,12.75,6.08,26.65,18.69,29.69-5.15,5.6-9.45,21.62,4,18-4.59,10.95,17.48,10.43,7,19,3.22,7.89,11.31-.83,8-7,9.52-2.49,2.88,12.15,11.93,10.93,9.04-1.23,5.63-9.68-.93-4.93-.78-8.35,9.98-11.82,9-21,13.84,1.31,5.02-12.61,1-18,25.1-8.19,13.8-45.15-8-50m17,23c.96,3.56,.62,6.56,0,10-.76,11.24-12.58,14.56-22,17-4.08,1.06-8.12,.38-12,0-11.57,0-19.54-1.71-26.77-11.23-7.23-9.52-1.13-16.59,4.54-26,5.67-9.41,21.83-4.44,25.23-13.77,4.34,5.12,7.96-1.96,10-5-5.23,14.8,20.55,13.8,21,29m-20,55c-3.34,1.84-6.87,.38-10,0-4.56-.09-12.05,.1-10.98-7.02,1.08-7.13-3.48-7.55-9.02-4.98,.4-4.89,5.78-7.59,7-12,12.57,5.25,30.87-8.11,36,9-9.62-1.78-6.69,11.67-13,15Z"/><path class="e" d="M53.58,70.26c3.88,0,8.16,.51,12,0,9.42-2.44,21.24-5.76,22-17,.21-3.1,.44-6.93,0-10-.45-15.2-26.23-14.2-21-29-2.04,3.04-5.66,10.12-10,5-3.4,9.33-19.56,4.36-25.23,13.77-5.67,9.41-11.77,16.48-4.54,26,7.23,9.52,15.2,11.23,26.77,11.23m-15-24c2.03,.92,.88,5.74-1.7,4.64-2.58-1.1-.69-5.73,1.7-4.64m39,2c.49,8.46-8.54-1.3,0,0m-22,4c10.19,.95,7.37,15.49-4.01,13.99-11.38-1.49-5.19-14.84,4.01-13.99Z"/><path class="c" d="M87.58,53.26c.62-3.44,.96-6.44,0-10,.44,3.07,.21,6.9,0,10Z"/><path class="i" d="M38.58,46.26c-2.39-1.09-4.28,3.54-1.7,4.64,2.58,1.1,3.73-3.72,1.7-4.64Z"/><path class="d" d="M55.58,52.26c-9.2-.85-15.39,12.5-4.01,13.99,11.38,1.5,14.2-13.04,4.01-13.99m2,8c-2.09,.2-5.45,2.43-7,0,1.88-2.22,6.83-4.95,7,0Z"/><path class="g" d="M57.58,60.26c-.17-4.95-5.12-2.22-7,0,1.55,2.43,4.91,.2,7,0Z"/><path class="j" d="M65.58,70.26c-3.84,.51-8.12,0-12,0,3.88,.38,7.92,1.06,12,0Z"/><path class="f" d="M57.58,98.26c2.7,.05,7.49,.92,10,0,6.31-3.33,3.38-16.78,13-15-5.13-17.11-23.43-3.75-36-9-1.22,4.41-6.6,7.11-7,12,5.54-2.57,10.1-2.15,9.02,4.98-1.07,7.12,6.42,6.93,10.98,7.02Z"/><path class="k" d="M67.58,98.26c-2.51,.92-7.3,.05-10,0,3.13,.38,6.66,1.84,10,0Z"/><path class="o" d="M70.58,20.26c.32-3.4,5.68-11.33,.01-11.99-5.67-.66-7.6,3.37-10.01,6.99-5.95-9.13-15.79-5.39-10,5-15.94-1.93-25.19,10.55-30.69,23.31-5.51,12.75,6.08,26.65,18.69,29.69-5.15,5.6-9.45,21.62,4,18-4.59,10.95,17.48,10.43,7,19,3.22,7.89,11.31-.83,8-7,9.52-2.49,2.88,12.15,11.93,10.93,9.04-1.23,5.63-9.68-.93-4.93-.78-8.35,9.98-11.82,9-21,13.84,1.31,5.02-12.61,1-18,25.1-8.19,13.8-45.15-8-50m17,23c.96,3.56,.62,6.56,0,10-.76,11.24-12.58,14.56-22,17-4.08,1.06-8.12,.38-12,0-11.57,0-19.54-1.71-26.77-11.23-7.23-9.52-1.13-16.59,4.54-26,5.67-9.41,21.83-4.44,25.23-13.77,4.34,5.12,7.96-1.96,10-5-5.23,14.8,20.55,13.8,21,29m-20,55c-3.34,1.84-6.87,.38-10,0-4.56-.09-12.05,.1-10.98-7.02,1.08-7.13-3.48-7.55-9.02-4.98,.4-4.89,5.78-7.59,7-12,12.57,5.25,30.87-8.11,36,9-9.62-1.78-6.69,11.67-13,15Z"/><path class="b" d="M53.58,70.26c3.88,0,8.16,.51,12,0,9.42-2.44,21.24-5.76,22-17,.21-3.1,.44-6.93,0-10-.45-15.2-26.23-14.2-21-29-2.04,3.04-5.66,10.12-10,5-3.4,9.33-19.56,4.36-25.23,13.77-5.67,9.41-11.77,16.48-4.54,26,7.23,9.52,15.2,11.23,26.77,11.23m-15-24c2.03,.92,.88,5.74-1.7,4.64-2.58-1.1-.69-5.73,1.7-4.64m39,2c.49,8.46-8.54-1.3,0,0m-22,4c10.19,.95,7.37,15.49-4.01,13.99-11.38-1.49-5.19-14.84,4.01-13.99Z"/><path class="r" d="M87.58,53.26c.62-3.44,.96-6.44,0-10,.44,3.07,.21,6.9,0,10Z"/><path class="n" d="M38.58,46.26c-2.39-1.09-4.28,3.54-1.7,4.64,2.58,1.1,3.73-3.72,1.7-4.64Z"/><path class="m" d="M55.58,52.26c-9.2-.85-15.39,12.5-4.01,13.99,11.38,1.5,14.2-13.04,4.01-13.99m2,8c-2.09,.2-5.45,2.43-7,0,1.88-2.22,6.83-4.95,7,0Z"/><path class="p" d="M57.58,60.26c-.17-4.95-5.12-2.22-7,0,1.55,2.43,4.91,.2,7,0Z"/><path class="s" d="M65.58,70.26c-3.84,.51-8.12,0-12,0,3.88,.38,7.92,1.06,12,0Z"/><path class="q" d="M57.58,98.26c2.7,.05,7.49,.92,10,0,6.31-3.33,3.38-16.78,13-15-5.13-17.11-23.43-3.75-36-9-1.22,4.41-6.6,7.11-7,12,5.54-2.57,10.1-2.15,9.02,4.98-1.07,7.12,6.42,6.93,10.98,7.02Z"/><path class="l" d="M67.58,98.26c-2.51,.92-7.3,.05-10,0,3.13,.38,6.66,1.84,10,0Z"/></svg>